<?xml version="1.0" encoding="utf-8"?>
<!-- Generator: Adobe Illustrator 23.0.5, SVG Export Plug-In . SVG Version: 6.00 Build 0)  -->
<svg version="1.1" id="Layer_1" xmlns="http://www.w3.org/2000/svg" xmlns:xlink="http://www.w3.org/1999/xlink" x="0px" y="0px"
	 viewBox="0 0 66 62.9" style="enable-background:new 0 0 66 62.9;" xml:space="preserve">
<g>
	<path d="M65.9,54.4c-0.3-1.8-0.8-3.7-1.6-5.4c0,0,0,0,0,0c-0.9-1.9-2.2-3.5-4.3-4.8c-1.2-0.7-2.6-1-4.1-1h-3V25
		c6.4-0.5,11.5-5.9,11.5-12.5C64.5,5.6,58.9,0,52,0S39.5,5.6,39.5,12.5c0,6.6,5.1,12,11.5,12.5v18.2h-3.2c-6.2-5.7-13-8.4-21.1-8.2
		c-3.9-0.4-9.2,1.4-14.3,3.4L10.5,39c-3.3,1.3-6.4,2.5-9,3.1c-0.4,0.1-0.7,0.4-0.8,0.8c-0.4,2.4-0.8,5-0.7,7.3c0,0,0,0,0,0
		c0,0,0,0,0,0.1c0.1,2.9,0.9,5.5,3.2,7c0.2,0.1,0.4,0.2,0.6,0.2h4.7c0.4,3,2.9,5.2,5.9,5.2s5.6-2.3,6-5.3h22.3c0.4,3,2.9,5.3,6,5.3
		c3.1,0,5.6-2.3,5.9-5.3h8.8c0.8,0,1.5-0.3,2-1C65.9,56,66.1,55.2,65.9,54.4z M41.5,12.5C41.5,6.7,46.2,2,52,2
		c5.8,0,10.5,4.7,10.5,10.5S57.8,23,52,23C46.2,23,41.5,18.3,41.5,12.5z M61.8,48.6c-3.1-0.1-4.6-2-5.3-3.4c0.9,0.1,1.8,0.3,2.5,0.8
		C60.2,46.6,61.1,47.5,61.8,48.6z M30.7,43.2l-2.5-6.2c6.3,0.1,11.6,2.1,16.6,6.2H30.7z M26,36.9l2.5,6.3H16.2l-2-3.4
		C18.4,38.2,22.8,36.7,26,36.9z M2.1,47.2h1c0.6,0,1.1,0.5,1.1,1.1s-0.5,1.1-1.1,1.1H2C2,48.6,2.1,47.9,2.1,47.2z M14.4,60.9
		c-2.2,0-4-1.8-4-4s1.8-4,4-4s4,1.8,4,4S16.6,60.9,14.4,60.9z M48.6,60.9c-2.2,0-4-1.8-4-4s1.8-4,4-4s4,1.8,4,4S50.8,60.9,48.6,60.9
		z M63.8,55.4c-0.1,0.1-0.2,0.2-0.5,0.2h-8.9c-0.6-2.7-3-4.8-5.9-4.8s-5.3,2-5.9,4.8H20.3c-0.6-2.7-3-4.8-5.9-4.8s-5.3,2-5.9,4.8
		H4.1c-1.2-1-1.8-2.4-2-4.3h1.1c1.7,0,3.1-1.4,3.1-3.1s-1.4-3.1-3.1-3.1H2.4c0.1-0.4,0.1-0.9,0.2-1.3c2.6-0.7,5.5-1.8,8.6-3l1.1-0.4
		l2.4,4.2c0.2,0.3,0.5,0.5,0.9,0.5h31.8h6.9c0.9,2.3,3.2,5.4,7.8,5.4c0.3,0,0.5,0,0.8,0c0.5,1.2,0.8,2.6,1.1,4.2
		C64,55,64,55.2,63.8,55.4z"/>
	<path d="M53,20.7v-1.2c1.8-0.5,3.1-2,3.1-3.9c0-2.2-1.8-4.1-4.1-4.1c-1.1,0-2.1-0.9-2.1-2.1s0.9-2.1,2.1-2.1s2.1,0.9,2.1,2.1
		c0,0.6,0.4,1,1,1c0.5,0,1-0.4,1-1c0-1.9-1.3-3.5-3.1-3.9V4.4c0-0.6-0.5-1-1-1c-0.6,0-1,0.4-1,1v1.2c-1.8,0.4-3.1,2-3.1,3.9
		c0,2.2,1.8,4.1,4.1,4.1c1.1,0,2.1,0.9,2.1,2.1s-0.9,2.1-2.1,2.1s-2.1-0.9-2.1-2.1c0-0.5-0.5-1-1-1c-0.6,0-1,0.5-1,1
		c0,1.9,1.3,3.5,3.1,3.9v1.2c0,0.5,0.4,1,1,1C52.5,21.7,53,21.2,53,20.7z"/>
</g>
</svg>
