<?xml version="1.0" encoding="utf-8"?>
<!-- Generator: Adobe Illustrator 23.0.5, SVG Export Plug-In . SVG Version: 6.00 Build 0)  -->
<svg version="1.1" id="Layer_1" xmlns="http://www.w3.org/2000/svg" xmlns:xlink="http://www.w3.org/1999/xlink" x="0px" y="0px"
	 viewBox="0 0 128 100" style="enable-background:new 0 0 128 100;" xml:space="preserve">
<title>152 Web Icon Set 97 expanded</title>
<path d="M38.6,70h27.9c1.6,5.8,7.7,9.2,13.6,7.6c3.7-1,6.5-3.9,7.6-7.6h4.1l-0.2-4h-3.5c-0.5-6-5.9-10.5-11.9-10
	c-5.3,0.5-9.5,4.7-10,10H38.9c-0.5-6-5.9-10.5-11.9-10c-5.3,0.5-9.5,4.7-10,10H6.3c-1.8-1-2.3-1.7-2.3-2c1.1-4.1,3.1-9.5,4.8-11.8
	c1.3-1.8,8.1-4.8,12.7-6.3c0.5-0.1,0.9-0.3,1.2-0.7l11.2-13c2.3-2.7,5.6-4.2,9.1-4.2H68c-0.1-1.4,0.2-2.7,0.7-4H43
	c-4.7,0-9.1,2-12.1,5.6L20,42.1C17.3,43,8,46.5,5.6,49.8C3.2,53,1.1,59.6,0.2,62.9c-0.7,2.6,0.9,4.9,4.7,6.8C5.1,69.9,5.4,70,5.8,70
	h11.7c1.6,5.8,7.7,9.2,13.6,7.6C34.7,76.5,37.5,73.7,38.6,70L38.6,70z M77,60c3.9,0,7,3.1,7,7s-3.1,7-7,7s-7-3.1-7-7
	C70,63.1,73.1,60,77,60z M28,74c-3.9,0-7-3.1-7-7s3.1-7,7-7s7,3.1,7,7C35,70.9,31.9,74,28,74z"/>
<circle cx="105" cy="40.9" r="0.9"/>
<circle cx="105" cy="48.2" r="0.9"/>
<path d="M98.4,11.1c0,6.1,5,11.1,11.1,11s11.1-5,11-11.1c0-6.1-5-11-11.1-11C103.4,0,98.4,5,98.4,11.1z M116.6,11.1
	c0,3.9-3.2,7.1-7.1,7c-3.9,0-7.1-3.2-7-7.1c0-3.9,3.2-7,7.1-7C113.4,4,116.6,7.2,116.6,11.1z"/>
<path d="M105.8,13.6c0,1.1,0.9,2,2,2h3.3c1.1,0,2-0.9,2-2s-0.9-2-2-2h-3.3C106.7,11.6,105.8,12.5,105.8,13.6z"/>
<path d="M118.6,23.2h-16.3c-2.8,0-5.4,1.2-7.1,3.4l-6.5,6.7l-4.8-4.8c-0.4-0.4-0.9-0.7-1.4-0.9c0,0-0.1-0.1-0.1-0.1l-3.2-3.6
	c-1.4-1.6-3.8-1.7-5.4-0.3c-0.1,0.1-0.2,0.2-0.3,0.3c0,0,0,0,0,0c-1.9,2.1-1.9,5.3,0,7.3l2.5,2.8c0.2,0.2,0.5,0.4,0.8,0.5
	c0.1,0.2,0.3,0.5,0.5,0.7l7.5,7.5c1.4,1.1,3.1,1.7,4.9,1.7c1,0,3.4-0.2,4.8-1.6l0.7-0.6v17.8c0,0,0,0,0,0.1s0,0,0,0.1l1.7,31.4
	c0,0,0,0,0,0c-1.6,1.5-2.6,3.6-2.6,5.9V98c0,1.1,0.9,2,2,2h6.2c2.2,0,4-1.8,4-4v-2.6h0.4c0.7,0,1.4-0.4,1.7-1
	c0.1,0.1,0.2,0.3,0.3,0.4c-1,1.3-1.5,3-1.5,4.6V98c0,1.1,0.9,2,2,2h6.2c2.2,0,4-1.8,4-4v-3.1c0.4-0.4,0.7-0.9,0.7-1.4l1.6-28.8
	c2.8-0.1,5.1-2.4,5.1-5.3v-1.1c0.6-0.7,0.9-1.5,0.9-2.4l0-21.5C128,27.3,123.7,23.2,118.6,23.2z M112.3,89.4l-1.5-27.4h7.3
	l-1.5,27.4L112.3,89.4L112.3,89.4z M109,32.2l-2.2-5h4.5L109,32.2z M124,32.5l0,19.6h-2V40.1c0-1.1-0.9-2-2-2s-2,0.9-2,2v17.9h-7
	V37.5l4.6-10.2h2.9C121.5,27.2,123.9,29.6,124,32.5L124,32.5z M76.3,26.7l1.9,2.1l-0.8,0.9l-1-1.1C75.9,28.1,75.9,27.3,76.3,26.7z
	 M91.6,39.9c-1.3,0.6-2.8,0.6-4.1,0l-7.3-7.3l0.6-0.7l0.3-0.3l4.8,4.8c1.5,1.5,3.9,1.5,5.4,0l6.7-7c0,0,0.1-0.1,0.1-0.1
	c1-1.2,2.5-2,4.1-1.9h0.1l4.6,10.2v20.5h-7.9V37.5c0-1.1-0.9-2-2-2c-0.5,0-1,0.2-1.4,0.5L91.6,39.9z M102.5,96h-4
	c0.6-1.6,2.1-2.6,3.8-2.6h0.2L102.5,96z M105,89.4h-4.3l-1.5-27.4h7.3L105,89.4z M115.7,96h-4c0.6-1.6,2.1-2.6,3.8-2.6h0.2L115.7,96
	z M123.1,57.4c0,0.6-0.4,1.1-0.9,1.3v-2.6h0.9V57.4z"/>
<path d="M39.4,34.2l-6.2,6c-1.1,1.1-1.5,2.7-0.9,4.2c0.7,1.6,2.3,2.6,4,2.6h37.4c1.4,0,2.7-0.6,3.6-1.8c0.7-1,0.9-2.3,0.5-3.4
	l-0.1-0.4l-3.3-3.3c-0.1-0.1-0.3-0.3-0.4-0.5c-0.4-0.3-0.7-0.6-1-0.9l-2.5-2.8c-0.2-0.3-0.5-0.6-0.7-0.9H42.4
	C41.3,33,40.2,33.4,39.4,34.2z M36.1,43l6-5.9c0.1-0.1,0.2-0.1,0.3-0.1H55v6H36.3C36.2,43,36.2,43,36.1,43z M71.7,37
	c0.1,0,0.2,0,0.3,0.1l2,5.9c-0.1,0-0.2,0.1-0.2,0.1H59v-6H71.7z"/>
</svg>
