<?xml version="1.0" encoding="utf-8"?>
<!-- Generator: Adobe Illustrator 23.0.5, SVG Export Plug-In . SVG Version: 6.00 Build 0)  -->
<svg version="1.1" id="Layer_1" xmlns="http://www.w3.org/2000/svg" xmlns:xlink="http://www.w3.org/1999/xlink" x="0px" y="0px"
	 viewBox="0 0 93.7 79.1" style="enable-background:new 0 0 93.7 79.1;" xml:space="preserve">
<style type="text/css">
	.st0{fill-rule:evenodd;clip-rule:evenodd;}
</style>
<path class="st0" d="M59.3,47.2c0,0,0,0.1,0,0.1l-0.1,0.3c-0.2,0.5-0.7,0.8-1.2,0.6c-0.2-0.1-0.4-0.2-0.5-0.4l-0.2-0.2
	c0,0-0.1-0.1-0.1-0.1L55.3,45h-3.6c-0.5,0-1-0.4-1-1s0.4-1,1-1h4.1v0c0.3,0,0.6,0.1,0.8,0.4l1.5,1.9l2-5.5h0
	c0.1-0.2,0.3-0.4,0.5-0.5c0.5-0.2,1,0,1.3,0.4l1.6,3.3H67v0c0.3,0,0.6,0.1,0.8,0.4l1.5,1.9l2-5.5h0c0.1-0.2,0.3-0.4,0.5-0.5
	c0.5-0.2,1,0,1.3,0.4l1.6,3.3h3.7c0.5,0,1,0.4,1,1s-0.4,1-1,1H74c-0.4,0-0.8-0.3-0.9-0.6l-0.8-1.8l-1.8,5c-0.2,0.5-0.7,0.8-1.2,0.6
	c-0.2-0.1-0.4-0.2-0.5-0.4L66.5,45h-3.8c-0.4,0-0.8-0.3-0.9-0.6L61,42.6L59.3,47.2z M90.8,76.6c0.6-0.5,1-1.1,1-1.9
	c0.1-0.7-0.1-1.5-0.6-2.1L82,60.9c-0.5-0.6-1.1-1-1.9-1c-0.7-0.1-1.4,0.1-2,0.5c0,0-0.1,0.1-0.1,0.1c-0.6,0.5-0.9,1.1-1,1.8
	s0.1,1.4,0.5,2c0,0,0.1,0.1,0.1,0.1l9.2,11.7c0.5,0.6,1.1,1,1.9,1C89.4,77.3,90.2,77.1,90.8,76.6L90.8,76.6z M93.7,75
	c0.1-1.2-0.2-2.4-1-3.5l-9.2-11.8c-0.8-1-1.9-1.6-3.1-1.8c-0.2,0-0.4,0-0.6,0l-2.1-2.7C80.5,52,81.9,48,81.9,44c0-4.3-1.7-8.7-5-12
	c-3.3-3.3-7.6-5-12-5c-4.3,0-8.7,1.7-12,5c-3.3,3.3-5,7.6-5,12c0,0.7,0,1.3,0.1,2h-6.9c-0.7-1.5-1.7-2.9-2.9-4.1
	c-2.6-2.6-6.2-4.2-10.1-4.2s-7.6,1.6-10.1,4.2c-1.2,1.2-2.2,2.6-2.9,4.1H4.8v-6.2c1.8,0,3.4-0.1,4.7-0.8c1.7-0.8,2.8-2.3,3.4-5.3
	c0.1-0.5-0.3-1-0.8-1.1c-0.1,0-0.1,0-0.2,0l0,0H5.4c0.6-1.2,1.5-2.4,2.6-3.3c1.5-1.2,3.4-2.3,5.9-3c0.1,0,0.2-0.1,0.3-0.1
	c0.1,0,0.2,0,0.3,0l18.7-1.8c0.3,0,0.6-0.2,0.8-0.5l9.8-16.2c1.1-1.8,2.6-3.3,4.3-4.2c1.7-1,3.7-1.5,5.8-1.5h15.1c0.5,0,1-0.4,1-1
	s-0.4-1-1-1L53.8,0c-2.5,0-4.8,0.6-6.8,1.7c-2,1.1-3.7,2.8-5,4.9l-9.5,15.8l-18.2,1.8c-0.2,0-0.3,0-0.4,0.1c-0.2,0-0.3,0.1-0.4,0.1
	c-2.8,0.8-5,1.9-6.7,3.4c-1.7,1.4-2.9,3.2-3.6,5.1C3.1,33.2,3,33.5,3,33.8c-0.1,0.3-0.1,0.6-0.1,0.9v4c0,0,0,0.1,0,0.1
	c0,0,0,0.1,0,0.1v7.1c-0.7,0.2-1.3,0.5-1.7,1C0.4,47.8,0,48.7,0,49.8s0.4,2,1.1,2.7c0.7,0.7,1.6,1.1,2.7,1.1h11c0.5,0,1-0.4,1-1
	c0,0,0-0.1,0-0.1c0-0.1,0-0.2,0-0.2V52c0-3.4,1.4-6.5,3.6-8.8s5.4-3.6,8.8-3.6c3.4,0,6.5,1.4,8.8,3.6s3.6,5.4,3.6,8.8v0.3
	c0,0.1,0,0.2,0,0.3c0,0.5,0.4,1,0.9,1h0v0H51c0.6,0.8,1.2,1.6,2,2.4c3.3,3.3,7.6,5,12,5c2.8,0,5.7-0.7,8.2-2.1l2.1,2.7
	c0,0.2-0.1,0.4-0.1,0.6c-0.1,1.2,0.2,2.4,1,3.5l9.2,11.8c0.8,1,1.9,1.6,3.1,1.8c1.2,0.1,2.4-0.2,3.5-1C93,77.3,93.6,76.2,93.7,75
	L93.7,75z M76.3,59.6l-1.4-1.8c0.5-0.4,1-0.8,1.5-1.2l1.4,1.9c-0.3,0.1-0.6,0.3-0.8,0.5l0,0C76.7,59.2,76.5,59.4,76.3,59.6
	L76.3,59.6z M72.7,56.9C72.8,56.9,72.8,56.8,72.7,56.9c0.2-0.2,0.3-0.2,0.4-0.2c0.9-0.6,1.7-1.2,2.5-2C78.5,51.7,80,47.9,80,44
	s-1.5-7.7-4.4-10.6C72.7,30.4,68.8,29,65,29s-7.7,1.5-10.6,4.4c-2.9,2.9-4.4,6.8-4.4,10.6s1.5,7.7,4.4,10.6C57.3,57.6,61.1,59,65,59
	C67.7,59,70.4,58.3,72.7,56.9L72.7,56.9z M49.9,51.7h-7.3c0-1.3-0.2-2.6-0.6-3.8h6.5C48.8,49.2,49.2,50.5,49.9,51.7L49.9,51.7z
	 M4.8,37.9v-3.2c0-0.1,0-0.2,0-0.3h6c-0.4,1.5-1.2,2.4-2.1,2.8C7.7,37.8,6.3,37.9,4.8,37.9L4.8,37.9z M14.4,47.9
	c-0.4,1.2-0.6,2.5-0.6,3.8h-10c-0.5,0-1-0.2-1.3-0.6c-0.3-0.3-0.6-0.8-0.6-1.4c0-0.5,0.2-1,0.6-1.3c0.3-0.3,0.8-0.6,1.3-0.6
	L14.4,47.9z M63.1,8.3v14.1H42l7.5-12.6c0.3-0.5,0.7-0.9,1.2-1.2c0.5-0.3,1-0.4,1.6-0.4L63.1,8.3z M52.3,6.4H64c0.5,0,1,0.4,1,1v16
	c0,0.5-0.4,1-1,1l-23.7,0v0c-0.2,0-0.3,0-0.5-0.1c-0.5-0.3-0.6-0.9-0.3-1.3l8.4-14c0.5-0.8,1.1-1.4,1.9-1.8
	C50.5,6.7,51.3,6.4,52.3,6.4L52.3,6.4z M68.9,6.4c0.5,0,1,0.4,1,1c0,0.4-0.3,0.8-0.7,0.9v14.2c0.4,0.1,0.7,0.5,0.7,0.9
	c0,0.5-0.4,1-1,1h-0.7c-0.5,0-1-0.4-1-1v-16c0-0.5,0.4-1,1-1L68.9,6.4z M28.2,57.7c-1.6,0-3-0.6-4-1.7c-1-1-1.7-2.4-1.7-4
	s0.6-3,1.7-4c1-1,2.4-1.7,4-1.7s3,0.6,4,1.7c1,1,1.7,2.4,1.7,4s-0.6,3-1.7,4C31.2,57.1,29.7,57.7,28.2,57.7z M25.5,54.7
	c-0.7-0.7-1.1-1.6-1.1-2.7s0.4-2,1.1-2.7c0.7-0.7,1.6-1.1,2.7-1.1s2,0.4,2.7,1.1c0.7,0.7,1.1,1.6,1.1,2.7s-0.4,2-1.1,2.7
	c-0.7,0.7-1.6,1.1-2.7,1.1C27.1,55.8,26.2,55.4,25.5,54.7z M28.2,62.9c-3,0-5.7-1.2-7.7-3.2c-2-2-3.2-4.7-3.2-7.7s1.2-5.7,3.2-7.7
	c2-2,4.7-3.2,7.7-3.2s5.7,1.2,7.7,3.2c2,2,3.2,4.7,3.2,7.7c0,3-1.2,5.7-3.2,7.7C33.9,61.7,31.2,62.9,28.2,62.9z M21.9,58.4
	c-1.6-1.6-2.6-3.9-2.6-6.3c0-2.5,1-4.7,2.6-6.3s3.9-2.6,6.3-2.6c2.5,0,4.7,1,6.3,2.6c1.6,1.6,2.6,3.9,2.6,6.3c0,2.5-1,4.7-2.6,6.3
	C32.9,60,30.6,61,28.2,61C25.7,61,23.5,60,21.9,58.4z"/>
</svg>
