<?xml version="1.0" encoding="utf-8"?>
<!-- Generator: Adobe Illustrator 23.0.5, SVG Export Plug-In . SVG Version: 6.00 Build 0)  -->
<svg version="1.1" id="Layer_1" xmlns="http://www.w3.org/2000/svg" xmlns:xlink="http://www.w3.org/1999/xlink" x="0px" y="0px"
	 viewBox="0 0 90.1 93.4" style="enable-background:new 0 0 90.1 93.4;" xml:space="preserve">
<path d="M90.1,47.3l-0.7-4.5c0,0,0,0,0,0c-0.2-1.2-1.3-2.1-2.5-2.1c0,0,0,0-0.1,0l-6.5,0.2c-1.2,0-2.3,0.9-2.4,2.2l-0.1,0.9L74.5,31
	c-0.7-2.9-3.3-4.9-6.3-4.9h-7.9c1.5-2.5,2.3-5.5,2.3-8.6C62.6,7.9,54.7,0,45.1,0c-9.6,0-17.5,7.9-17.5,17.5c0,3.1,0.8,6.1,2.3,8.6
	H22c-3,0-5.5,2-6.3,4.9l-3.4,12.9L12.2,43c0,0,0,0,0,0c-0.2-1.2-1.2-2.1-2.4-2.2l-6.5-0.2c-1.2,0-2.3,0.9-2.5,2.1L0,47.3
	c-0.1,0.7,0.1,1.4,0.5,1.9c0.4,0.5,1.1,0.9,1.7,1l6.1,0.6L4.2,60c-0.7,1.6-1.1,3.4-1.1,5.2v6.2c-0.3,0.5-0.5,1.1-0.5,1.8v6.2
	c0,0.7,0.2,1.3,0.5,1.8v7.7c0,2.5,2,4.5,4.5,4.5h5.7c2.5,0,4.5-2,4.5-4.5v-6h54.5v6c0,2.5,2,4.5,4.5,4.5h5.7c2.5,0,4.5-2,4.5-4.5
	v-7.7c0.3-0.5,0.5-1.1,0.5-1.8v-6.2c0-0.7-0.2-1.3-0.5-1.8v-6.2c0-1.8-0.4-3.6-1.1-5.2l-4.1-9.2l6.1-0.6c0.7-0.1,1.3-0.4,1.7-1
	C90.1,48.7,90.3,48,90.1,47.3z M45.1,3c8,0,14.5,6.5,14.5,14.5S53.1,32,45.1,32c-8,0-14.5-6.5-14.5-14.5S37.1,3,45.1,3z M18.6,31.7
	c0.4-1.5,1.8-2.6,3.4-2.6h10c3.2,3.6,7.9,5.9,13,5.9c5.2,0,9.8-2.3,13-5.9h10c1.6,0,3,1.1,3.4,2.6l4.1,15.7H14.5L18.6,31.7z M3,47.3
	l0.6-3.6l5.7,0.1l0.5,4L3,47.3z M6.1,65.2c0-1.3,0.3-2.7,0.8-3.9l10.9,3.3c0.2,0.1,0.4,0.3,0.4,0.5v4.6H6.1V65.2z M14.8,88.9
	c0,0.8-0.7,1.5-1.5,1.5H7.6c-0.8,0-1.5-0.7-1.5-1.5v-6h8.7V88.9z M84.1,88.9c0,0.8-0.7,1.5-1.5,1.5h-5.7c-0.8,0-1.5-0.7-1.5-1.5v-6
	h8.7V88.9z M84.6,73.2v6.2c0,0.3-0.2,0.5-0.5,0.5h-78c-0.3,0-0.5-0.2-0.5-0.5v-6.2c0-0.3,0.2-0.5,0.5-0.5h78
	C84.3,72.7,84.6,73,84.6,73.2z M84.1,65.2v4.5H72v-4.6c0-0.2,0.1-0.4,0.4-0.5l10.9-3.3C83.8,62.5,84.1,63.9,84.1,65.2z M82,58.6
	l-10.6,3.2C70,62.2,69,63.6,69,65.1v4.6H21.2v-4.6c0-1.6-1-2.9-2.5-3.3L8.1,58.6l3.5-7.8c0.1-0.2,0.3-0.3,0.5-0.3h66
	c0.2,0,0.4,0.1,0.5,0.3L82,58.6z M80.3,47.9l0.5-4l5.7-0.1l0.6,3.6L80.3,47.9z M63.6,61.1c0,0.8-0.7,1.5-1.5,1.5h-34
	c-0.8,0-1.5-0.7-1.5-1.5s0.7-1.5,1.5-1.5h34C62.9,59.6,63.6,60.3,63.6,61.1z M61.7,66.2c0,0.8-0.7,1.5-1.5,1.5H29.9
	c-0.8,0-1.5-0.7-1.5-1.5s0.7-1.5,1.5-1.5h30.3C61,64.7,61.7,65.3,61.7,66.2z M40.1,16.6c2.4,0,4.3-1.9,4.3-4.3S42.4,8,40.1,8
	s-4.3,1.9-4.3,4.3S37.7,16.6,40.1,16.6z M40.1,11c0.7,0,1.3,0.6,1.3,1.3s-0.6,1.3-1.3,1.3c-0.7,0-1.3-0.6-1.3-1.3S39.4,11,40.1,11z
	 M50.1,18.4c-2.4,0-4.3,1.9-4.3,4.3s1.9,4.3,4.3,4.3s4.3-1.9,4.3-4.3S52.4,18.4,50.1,18.4z M50.1,24c-0.7,0-1.3-0.6-1.3-1.3
	c0-0.7,0.6-1.3,1.3-1.3s1.3,0.6,1.3,1.3C51.3,23.4,50.8,24,50.1,24z M36.2,26.3c-0.6-0.6-0.6-1.5,0-2.1L51.8,8.7
	c0.6-0.6,1.5-0.6,2.1,0c0.6,0.6,0.6,1.5,0,2.1L38.4,26.3c-0.3,0.3-0.7,0.4-1.1,0.4S36.5,26.6,36.2,26.3z"/>
</svg>
