<?xml version="1.0" encoding="utf-8"?>
<!-- Generator: Adobe Illustrator 23.0.5, SVG Export Plug-In . SVG Version: 6.00 Build 0)  -->
<svg version="1.1" id="Layer_1" xmlns="http://www.w3.org/2000/svg" xmlns:xlink="http://www.w3.org/1999/xlink" x="0px" y="0px"
	 viewBox="0 0 90 90" style="enable-background:new 0 0 90 90;" xml:space="preserve">
<path d="M45,31.1c4.8,0,8.7-3.9,8.7-8.7s-3.9-8.7-8.7-8.7s-8.7,3.9-8.7,8.7S40.2,31.1,45,31.1z M45,16c3.6,0,6.5,2.9,6.5,6.5
	c0,3.6-2.9,6.5-6.5,6.5c-3.6,0-6.5-2.9-6.5-6.5C38.5,18.9,41.4,16,45,16z M86.2,33.9c3.4-3.4,4.7-8.4,3.3-13.1
	c-0.1-0.4-0.4-0.7-0.8-0.7c-0.4-0.1-0.8,0-1,0.3L82,26c-0.9,0.9-2,1.3-3.2,1.3s-2.4-0.5-3.2-1.3s-1.3-2-1.3-3.2
	c0-1.2,0.5-2.4,1.3-3.2l5.6-5.6c0.3-0.3,0.4-0.7,0.3-1s-0.4-0.7-0.7-0.8c-4.6-1.4-9.6-0.1-13.1,3.3c-3.1,3.1-4.4,7.4-3.6,11.6
	l-1.4-0.8c0.3-1.2,0.4-2.5,0.4-3.7c0-1.3-0.1-2.5-0.4-3.7l1.7-1c1.6-0.9,2.2-3,1.2-4.6l-2.2-3.8c-0.9-1.6-3-2.2-4.6-1.2l-1.7,1
	c-1.9-1.7-4.1-2.9-6.4-3.7v-2c0-1.9-1.5-3.4-3.4-3.4h-4.4c-1.9,0-3.4,1.5-3.4,3.4v2c-2.4,0.8-4.6,2-6.4,3.7l-1.7-1
	c-1.6-0.9-3.7-0.4-4.6,1.2l-2.2,3.8c-0.5,0.8-0.6,1.7-0.3,2.6s0.8,1.6,1.6,2.1l1.7,1C27.2,20,27,21.2,27,22.5c0,1.3,0.1,2.5,0.4,3.7
	L26,27c0.8-4.2-0.5-8.5-3.6-11.6C19,11.9,14,10.7,9.3,12.1c-0.4,0.1-0.7,0.4-0.7,0.8c-0.1,0.4,0,0.8,0.3,1l5.6,5.6
	c0.9,0.9,1.3,2,1.3,3.2s-0.5,2.4-1.3,3.2s-2,1.3-3.2,1.3S8.8,26.8,8,26l-5.6-5.6c-0.3-0.3-0.7-0.4-1-0.3c-0.4,0.1-0.7,0.4-0.8,0.7
	c-1.4,4.6-0.1,9.6,3.3,13.1c3.6,3.6,8.9,4.8,13.7,3.1l7.2,7.2c-2,1.7-3.6,4-4.4,6.7l-0.7,2.4c-0.8-0.8-1.9-1.6-3.2-2
	c-1.8-0.6-3.6-0.4-4.8,0.3c-0.8,0.5-1.4,1.2-1.6,2.1c-0.4,1.7,0.7,3.6,2.7,4.8c-1.9,1.8-3,4.4-3,7.2v7.5c0,2.3,0.8,4.4,2.1,6.1v6.3
	c0,2.4,1.9,4.3,4.3,4.3h4.7c2.4,0,4.3-1.9,4.3-4.3v-2.3h39.9v2.3c0,2.4,1.9,4.3,4.3,4.3h4.7c2.4,0,4.3-1.9,4.3-4.3v-6.3
	c1.3-1.7,2.1-3.8,2.1-6.1v-7.5c0-2.8-1.2-5.4-3-7.2c2-1.2,3.1-3.1,2.7-4.8c-0.2-0.9-0.8-1.6-1.6-2.1c-1.3-0.7-3.1-0.8-4.8-0.3
	c-1.3,0.4-2.4,1.1-3.2,2l-0.7-2.4c-0.8-2.7-2.3-5-4.4-6.7l7.2-7.2C77.2,38.7,82.5,37.5,86.2,33.9L86.2,33.9z M26.8,29.1l2.4-1.4
	c0.4-0.2,0.6-0.7,0.5-1.2c-0.3-1.3-0.5-2.6-0.5-4s0.2-2.7,0.5-4c0.1-0.5-0.1-1-0.5-1.2l-2.4-1.4c-0.3-0.2-0.5-0.4-0.6-0.7
	c-0.1-0.3,0-0.6,0.1-0.9l2.2-3.8c0.3-0.6,1.1-0.8,1.6-0.4l2.4,1.4c0.4,0.2,1,0.2,1.3-0.2c1.9-1.9,4.3-3.3,6.9-4
	c0.5-0.1,0.8-0.6,0.8-1.1V3.4c0-0.7,0.5-1.2,1.2-1.2h4.4c0.7,0,1.2,0.5,1.2,1.2v2.8c0,0.5,0.3,0.9,0.8,1.1c2.6,0.7,5,2.1,6.9,4
	c0.4,0.3,0.9,0.4,1.3,0.2l2.4-1.4c0.6-0.3,1.3-0.1,1.6,0.4l2.2,3.8c0.3,0.6,0.1,1.3-0.4,1.6l-2.4,1.4c-0.4,0.2-0.6,0.7-0.5,1.2
	c0.3,1.3,0.5,2.6,0.5,4s-0.2,2.7-0.5,4c-0.1,0.5,0.1,1,0.5,1.2l2.4,1.4c0.3,0.2,0.5,0.4,0.6,0.8l-4.7,4.7l-1.7-1
	c-0.4-0.2-1-0.2-1.3,0.2c-1.9,1.9-4.3,3.3-6.9,4c-0.5,0.1-0.8,0.6-0.8,1.1v2.2h-6.8v-2.2c0-0.5-0.3-0.9-0.8-1.1
	c-2.6-0.7-5-2.1-6.9-4c-0.4-0.3-0.9-0.4-1.3-0.2l-1.7,1l-4.7-4.7C26.3,29.5,26.5,29.2,26.8,29.1L26.8,29.1z M50.6,40.9v-1.3
	c2.4-0.8,4.6-2,6.4-3.7l0.5,0.3l-4.8,4.8L50.6,40.9z M37.3,40.9l-4.8-4.8l0.5-0.3c1.9,1.7,4.1,2.9,6.4,3.7v1.3L37.3,40.9z
	 M18.6,34.9c-0.3-0.3-0.8-0.4-1.2-0.2c-4.1,1.7-8.8,0.8-12-2.3c-2.4-2.4-3.5-5.7-3.1-9l4.2,4.2c1.3,1.3,3,2,4.8,2s3.5-0.7,4.8-2
	c1.3-1.3,2-3,2-4.8s-0.7-3.5-2-4.8l-4.2-4.2c3.3-0.4,6.6,0.7,9,3.1c3.2,3.2,4.1,7.9,2.3,12c-0.2,0.4-0.1,0.9,0.2,1.2l10.8,10.8h-0.6
	c-2.6,0-5,0.7-7.1,1.9L18.6,34.9L18.6,34.9z M12.2,54.1c0.1-0.3,0.3-0.5,0.6-0.7c0.7-0.4,1.9-0.5,3.1-0.1c1.5,0.5,2.5,1.4,2.9,2.3
	c-1.5,0.2-2.8,0.7-4,1.4C12.9,56.3,12,55,12.2,54.1L12.2,54.1z M22.9,85.7c0,1.2-1,2.1-2.1,2.1h-4.7c-1.2,0-2.1-1-2.1-2.1v-4.2
	c1.7,1.2,3.7,1.9,5.9,1.9h3L22.9,85.7L22.9,85.7z M74,87.8h-4.7c-1.2,0-2.1-1-2.1-2.1v-2.3h3c2.2,0,4.2-0.7,5.9-1.9v4.2
	C76.1,86.8,75.1,87.8,74,87.8L74,87.8z M78.2,65.7v7.5c0,4.4-3.6,8-8,8H19.8c-4.4,0-8-3.6-8-8v-7.5c0-4.4,3.6-8,8-8h50.4
	C74.6,57.7,78.2,61.3,78.2,65.7L78.2,65.7z M74.2,53.3c1.2-0.4,2.3-0.3,3.1,0.1c0.3,0.2,0.5,0.4,0.6,0.7c0.2,0.8-0.8,2.2-2.5,2.9
	c-1.2-0.7-2.6-1.2-4-1.4C71.7,54.8,72.7,53.8,74.2,53.3L74.2,53.3z M67.6,51.5l1.2,4.1H21.3l1.2-4.1c1.5-5,5.9-8.4,11.2-8.4h22.8
	C61.6,43.1,66.1,46.5,67.6,51.5L67.6,51.5z M71.4,34.9l-7.9,7.9c-2.1-1.2-4.5-1.9-7.1-1.9h-0.6l10.8-10.8c0.3-0.3,0.4-0.8,0.2-1.2
	c-1.7-4.1-0.8-8.8,2.3-12c2.4-2.4,5.7-3.5,9-3.1L74,17.9c-1.3,1.3-2,3-2,4.8s0.7,3.5,2,4.8c1.3,1.3,3,2,4.8,2s3.5-0.7,4.8-2l4.2-4.2
	c0.4,3.3-0.7,6.6-3.1,9c-3.2,3.2-7.9,4.1-12,2.3C72.2,34.5,71.7,34.6,71.4,34.9L71.4,34.9z M57.4,65.9H32.7c-1.9,0-3.5,1.6-3.5,3.5
	c0,1.9,1.6,3.5,3.5,3.5h24.7c1.9,0,3.5-1.6,3.5-3.5C60.9,67.5,59.3,65.9,57.4,65.9z M57.4,70.8H32.7c-0.7,0-1.3-0.6-1.3-1.3
	s0.6-1.3,1.3-1.3h24.7c0.7,0,1.3,0.6,1.3,1.3S58.1,70.8,57.4,70.8z M57.4,77.1c0,0.6-0.5,1.1-1.1,1.1H33.8c-0.6,0-1.1-0.5-1.1-1.1
	s0.5-1.1,1.1-1.1h22.5C56.9,76,57.4,76.5,57.4,77.1z M70.2,63.8H68c-3.1,0-5.7,2.5-5.7,5.7c0,3.1,2.5,5.7,5.7,5.7h2.2
	c3.1,0,5.7-2.5,5.7-5.7C75.9,66.3,73.4,63.8,70.2,63.8z M70.2,72.9H68c-1.9,0-3.5-1.6-3.5-3.5S66.1,66,68,66h2.2
	c1.9,0,3.5,1.6,3.5,3.5S72.2,72.9,70.2,72.9z M22,63.8h-2.2c-3.1,0-5.7,2.5-5.7,5.7c0,3.1,2.5,5.7,5.7,5.7H22c3.1,0,5.7-2.5,5.7-5.7
	C27.7,66.3,25.2,63.8,22,63.8z M22,72.9h-2.2c-1.9,0-3.5-1.6-3.5-3.5s1.6-3.5,3.5-3.5H22c1.9,0,3.5,1.6,3.5,3.5S23.9,72.9,22,72.9z"
	/>
</svg>
