<?xml version="1.0" encoding="utf-8"?>
<!-- Generator: Adobe Illustrator 23.0.5, SVG Export Plug-In . SVG Version: 6.00 Build 0)  -->
<svg version="1.1" id="Layer_1" xmlns="http://www.w3.org/2000/svg" xmlns:xlink="http://www.w3.org/1999/xlink" x="0px" y="0px"
	 viewBox="0 0 79.9 60.6" style="enable-background:new 0 0 79.9 60.6;" xml:space="preserve">
<path d="M42.1,41.9c-0.2-2-1-3.8-2.5-5.2c-1.2-1.4-2.9-2.1-4.7-2c-1.1,0-2.2,0.5-2.9,1.4c-0.9,1.3-1.1,3-0.6,4.5
	c0.1,0.5,0.5,1.5,4.3,2.6c1.3,0.4,2.7,0.7,4.1,0.8C41.2,44,42.2,43.1,42.1,41.9z M34.2,39.4c-0.1-0.5,0-1,0.3-1.5
	c0.1-0.1,0.1-0.2,0.5-0.2c1-0.1,1.9,0.3,2.5,1.1c0.6,0.6,1,1.2,1.3,2C37.2,40.6,35.7,40.1,34.2,39.4L34.2,39.4z"/>
<path d="M60.8,38.9H43.7c-0.8,0-1.5,0.7-1.5,1.5s0.7,1.5,1.5,1.5h17.1c0.8,0,1.5-0.7,1.5-1.5S61.6,38.9,60.8,38.9z"/>
<path d="M58.8,42.9h-13c-0.8,0-1.5,0.7-1.5,1.5s0.7,1.5,1.5,1.5l0,0h13c0.8,0,1.5-0.7,1.5-1.5S59.6,42.9,58.8,42.9z"/>
<path d="M69.6,34.7c-1.8-0.1-3.5,0.6-4.7,2c-1.4,1.4-2.3,3.2-2.5,5.2c-0.1,1,0.6,1.8,1.6,1.9c1.6,0.1,3.3-0.2,4.8-0.7
	c3.8-1.1,4.1-2.1,4.3-2.6C73.8,38.4,72.9,34.7,69.6,34.7z M70.3,39.5c-1.5,0.7-3,1.1-4.6,1.4c0.3-0.8,0.8-1.4,1.4-2
	c0.6-0.8,1.5-1.2,2.5-1.1c0.3,0,0.4,0.1,0.4,0.2C70.3,38.4,70.4,38.9,70.3,39.5z"/>
<path d="M75.2,26.7c-1.2-0.1-2.3,0.5-3,1.5l-3.4-7.1c-0.8-1.3-2.1-2.2-3.7-2.5c-3.3-0.7-6.6-0.8-12.9-0.8s-9.6,0.1-12.9,0.8
	c-0.6,0.1-2.8,0.7-3.7,2.5l-3.4,7.1c-0.7-1-1.8-1.6-3-1.5c-6.7,0.2-5.9,7.2,0.6,6.7c-0.6,1.2-1.2,2.2-2,3.3c-1.1,1.4-1.6,3.2-1.3,5
	c0.5,3.3,0.7,6.7,0.7,10c0,0.7,0.2,1.3,0.6,1.8v4.1c0,1.6,1.3,2.9,2.9,2.9c0,0,0,0,0,0h4.6c1.6,0,2.9-1.3,2.9-2.9l0,0v-2.8h28.2v2.7
	c0,1.6,1.3,2.9,2.9,2.9l0,0h4.6c1.6,0,2.9-1.3,2.9-2.9l0,0v-4.1c0.4-0.5,0.6-1.2,0.6-1.8c0-3.3,0.2-6.7,0.7-10
	c0.3-1.8-0.2-3.6-1.3-5c-0.8-1-1.5-2.1-2.1-3.3C81.1,33.9,81.9,26.9,75.2,26.7z M38.4,22.4c1.3-1.6,8.7-1.5,13.8-1.5
	s12.5-0.1,13.9,1.5l3.2,6.6H35.2L38.4,22.4z M27.8,30.1c0.5-0.3,1-0.4,1.5-0.4c0.1,0,0.4,0,0.5,0.1c0.1,0.2,0.1,0.4,0.1,0.6
	c-0.2,0-0.4,0-0.6,0C28.8,30.5,28.3,30.3,27.8,30.1z M35.2,57.6h-4.4v-2.7h4.4V57.6z M37.8,51.9c0.8-0.9,1.4-1.4,2.3-1.4h24.4
	c0.9,0,1.4,0.5,2.3,1.4H37.8z M69.4,57.6v-2.6h4.4v2.6H69.4z M75,41.2c-0.5,3.5-0.8,7-0.7,10.5c0,0.1-0.1,0.3-0.3,0.3H71
	c-2.1-1.7-3.1-4.3-6.5-4.4H40.1c-3.4,0-4.4,2.7-6.5,4.4h-3.1c-0.1,0-0.3-0.1-0.3-0.3c0.1-3.5-0.2-7-0.7-10.5
	c-0.1-0.9,0.1-1.9,0.7-2.6c1.5-2,2.7-4.2,3.6-6.5h36.8c0.9,2.3,2.1,4.5,3.6,6.5C74.9,39.3,75.2,40.2,75,41.2L75,41.2z M75.2,30.4
	c-0.2,0-0.4,0-0.6,0c0-0.2,0-0.4,0.1-0.6c0.1-0.1,0.4-0.1,0.5-0.1c0.5,0,1.1,0.1,1.5,0.4C76.3,30.3,75.7,30.5,75.2,30.4L75.2,30.4z"
	/>
<path d="M10.6,48.2c1.6,0,2.9-1.3,2.9-2.9l0,0v-2.7h10.1c0.8,0,1.5-0.7,1.5-1.5s-0.7-1.5-1.5-1.5H13.2c0.8-0.9,1.4-1.4,2.3-1.4h8.2
	c0.8,0,1.5-0.7,1.5-1.5s-0.7-1.5-1.5-1.5h-8.2c-3.4,0.1-4.4,2.7-6.5,4.4H5.8c-0.1,0-0.3-0.1-0.3-0.3l0,0c0-3.5-0.2-7-0.7-10.5
	c-0.2-0.9,0.1-1.9,0.7-2.6c1.5-2,2.7-4.2,3.6-6.5h24.6c0.8,0,1.5-0.7,1.5-1.5s-0.7-1.5-1.5-1.5H10.6l3.2-6.6
	c1.3-1.6,8.7-1.5,13.8-1.5s12.6-0.1,13.8,1.5l2.1,4.5c0.4,0.7,1.3,1.1,2,0.7c0.7-0.4,1.1-1.3,0.7-2l0,0l-2.1-4.5
	c-0.8-1.8-3-2.3-3.7-2.5c-3.3-0.7-6.6-0.8-12.9-0.8S18,5.7,14.7,6.3c-1.5,0.3-2.9,1.2-3.7,2.5l-3.4,7.1c-0.7-1-1.8-1.6-3-1.5
	c-6.7,0.2-5.9,7.2,0.6,6.7c-0.6,1.1-1.3,2.2-2.1,3.3c-1.1,1.4-1.6,3.2-1.3,5c0.5,3.3,0.7,6.7,0.7,10c0,0.7,0.2,1.3,0.6,1.8v4.1
	c0,1.6,1.3,2.9,2.9,2.9h0H10.6z M3.2,17.7c0.5-0.3,1-0.4,1.5-0.4c0.1,0,0.4,0,0.5,0.1c0.1,0.2,0.1,0.4,0.1,0.6H4.7
	C4.1,18.1,3.6,18,3.2,17.7z M10.5,45.2H6.2v-2.6h4.4L10.5,45.2z"/>
<path d="M15.2,24.5c-1.2-1.5-3-2.3-4.9-2.2c-3.3,0-4.2,3.7-3.5,5.9c0.1,0.5,0.5,1.5,4.3,2.6c1.6,0.5,3.2,0.7,4.8,0.7
	c0.9-0.1,1.6-0.9,1.6-1.9l0,0C17.3,27.7,16.5,25.9,15.2,24.5z M9.6,27.1c-0.1-0.5,0-1.1,0.3-1.5c0.1-0.1,0.1-0.2,0.5-0.2
	c1-0.1,1.9,0.3,2.5,1.1c0.6,0.6,1.1,1.2,1.4,2C12.6,28.2,11,27.8,9.6,27.1L9.6,27.1z"/>
<path d="M60.3,0.9C57.1,0.1,53.9,0,47.4,0c-4.3,0-8.5,0.3-12.8,0.8c-0.8,0.1-1.4,0.9-1.3,1.7s0.9,1.4,1.7,1.3l0,0
	c4.1-0.5,8.2-0.8,12.4-0.8c6.3,0,9.4,0.1,12.2,0.8c0.6,0.1,1.2,0.5,1.6,1l4.2,10.1c0.2,0.6,0.8,0.9,1.4,0.9c0.8,0,1.5-0.7,1.5-1.6
	c0-0.2,0-0.4-0.1-0.5L64,3.6C63.2,2.2,61.9,1.2,60.3,0.9z"/>
</svg>
