<?xml version="1.0" encoding="utf-8"?>
<!-- Generator: Adobe Illustrator 23.0.5, SVG Export Plug-In . SVG Version: 6.00 Build 0)  -->
<svg version="1.1" id="Layer_1" xmlns="http://www.w3.org/2000/svg" xmlns:xlink="http://www.w3.org/1999/xlink" x="0px" y="0px"
	 viewBox="0 0 89 90" style="enable-background:new 0 0 89 90;" xml:space="preserve">
<style type="text/css">
	.st0{fill-rule:evenodd;clip-rule:evenodd;}
</style>
<title>a</title>
<path class="st0" d="M34.7,44.6c-0.5,1-1.2,7.7-0.8,8.4c0.2,0.3,1.2,0.1,1.5,0c0.5-0.1,1-0.4,1.4-0.6c1-0.7,2.2-2.8,3.1-4.2
	c0.7-1.1,0.7-1.1,1.7-1.5c0.9-0.3,1.8-0.7,2.7-1c1.2-0.5,2.5-0.6,3.7-0.2c1.5,0.6,2.9,1.4,4.2,2.4c1.6,1.1,4,2.7,6.4,4.3
	c2.4,1.6,4.1,2.8,5.3,3.7c1,0.7,2.1,1.4,3.3,2.2c0.1,0,0.2,0,0.3-0.1l3.9-1.8l-3.8-8l-2.9-6.1C63.8,40,63.8,40,63.3,40
	c-2.1,0.2-4.3,0.3-6.4,0.3c-4-0.1-6.6-1.2-10.2-1.9c-2.5-0.5-3-0.4-5.1,1.1c-1.7,1.2-4,2.8-5.8,3.9C35.4,43.7,35,44.2,34.7,44.6
	L34.7,44.6z M44.5,28.9c3.8,0,7.6-0.8,11.2-2.3c-0.3-2.2-1.4-4.1-3.1-5.5c-4.7-3.7-11.3-3.7-16.1,0c-1.7,1.3-2.8,3.3-3.1,5.5
	C36.8,28.1,40.6,28.9,44.5,28.9z M32.9,29.3c-6.5,1.3-13.3,0.5-19.3-2.3c-0.5-0.2-0.8-0.7-0.8-1.2c0-5.2,3.9-9.3,8.7-10.9
	c-3.6-2.9-4.1-8.2-1.2-11.8S28.4-1,32,1.9s4.1,8.2,1.2,11.8c-0.4,0.5-0.8,0.9-1.2,1.2c1.8,0.6,3.4,1.5,4.8,2.8
	c0.8-0.4,1.6-0.8,2.4-1.1c-3.6-2.9-4.1-8.2-1.2-11.8s8.2-4.1,11.8-1.2c3.6,2.9,4.1,8.2,1.2,11.8c-0.4,0.5-0.8,0.9-1.2,1.2
	c0.8,0.3,1.7,0.7,2.4,1.1c1.4-1.2,3-2.2,4.8-2.8c-3.6-2.9-4.1-8.2-1.2-11.8S63.9-1,67.5,1.9s4.1,8.2,1.2,11.8
	c-0.4,0.5-0.8,0.9-1.2,1.2c4.8,1.6,8.7,5.7,8.7,10.9c0,0.6-0.4,1.1-0.9,1.3c-3.1,1.4-6.3,2.3-9.7,2.7c-3.1,0.3-6.3,0.2-9.4-0.5
	c-3.7,1.5-7.7,2.3-11.7,2.3C40.5,31.6,36.6,30.8,32.9,29.3L32.9,29.3z M34.5,19.2c-2.3,1.9-3.7,4.7-3.9,7.7c-5.1,0.7-10.3,0-15-2.1
	c0.3-2.2,1.4-4.1,3.1-5.5C23.3,15.9,29.7,15.8,34.5,19.2z M30.7,4.4c-2.2-2.2-5.8-2.2-8,0s-2.2,5.8,0,8s5.8,2.2,8,0c0,0,0,0,0,0
	C32.9,10.1,32.9,6.6,30.7,4.4z M58.4,27c-0.2-3-1.6-5.8-3.9-7.7c4.7-3.4,11.2-3.4,15.8,0.2c1.7,1.3,2.8,3.3,3.1,5.5
	C68.7,27,63.5,27.7,58.4,27L58.4,27z M66.2,4.4c-2.2-2.2-5.8-2.2-8,0c-2.2,2.2-2.2,5.8,0,8c2.2,2.2,5.8,2.2,8,0c0,0,0,0,0,0
	C68.4,10.1,68.4,6.6,66.2,4.4z M48.5,6.1c-2.2-2.2-5.8-2.2-8,0s-2.2,5.8,0,8c2.2,2.2,5.8,2.2,8,0c0,0,0,0,0,0
	C50.7,11.8,50.7,8.3,48.5,6.1z M15.3,32l-12,18.7l10.1,6.5l12-18.7L15.3,32z M0.2,50.3l13.5-20.9c0.4-0.6,1.2-0.8,1.9-0.4l12.4,8
	c0.6,0.4,0.8,1.2,0.5,1.8c2.1,0.5,4.2,1.2,6.4,2c1.1-0.9,2.4-1.7,3.6-2.4c0.7-0.4,1.2-0.8,1.6-1.1c2.8-2,4-2.3,7.3-1.6
	c3.3,0.7,6.1,1.8,9.7,1.9c1.9,0,3.7-0.1,5.6-0.2L62.4,37c-0.3-0.7,0-1.5,0.7-1.8L76.4,29c0.7-0.3,1.5,0,1.8,0.7c0,0,0,0,0,0
	l10.6,22.6c0.3,0.7,0,1.5-0.7,1.8l-13.3,6.3c-0.7,0.3-1.5,0-1.8-0.7c0,0,0,0,0,0l-0.4-0.8L70,60c3.5,2.8,3,7.9-1,9.4
	c2.4,3.2,1.2,7.6-2.7,8.4c0.2,0.3,0.3,0.7,0.4,1c1.3,4.5-3.1,7.9-7.5,6.1c0.1,4.3-4.8,6.6-8.7,4.1l-10-6.3l-2.6,3.2
	c-1.7,2.1-4.7,2.4-6.7,0.7c-1-0.8-1.6-2-1.8-3.2c-2.6,0.3-5-1.6-5.3-4.2c0-0.2,0-0.3,0-0.5c-2.6,0.2-4.9-1.9-5.1-4.5
	c0-0.2,0-0.4,0-0.6c-2.7,0-4.8-2.2-4.7-4.9c0-1.1,0.4-2.1,1.1-2.9l2.1-2.7l-2.7-3.2c-0.4,0.6-1.2,0.7-1.8,0.3l-12.4-8
	C0,51.8-0.2,51,0.2,50.3C0.2,50.3,0.2,50.3,0.2,50.3L0.2,50.3z M26.9,41.1c1.8,0.4,3.8,1.1,5.8,1.7c-0.1,0.1-0.2,0.3-0.3,0.4
	c-0.9,1.4-1.6,8.6-1.1,10.3c0.9,3.2,4.9,2.6,7.1,1.1c1.6-1.1,2.9-3.5,3.9-5.1c0.2-0.3,0.2-0.3,0.3-0.3c0.2-0.1,0.6-0.2,1.2-0.4
	c1-0.4,2-0.6,3-0.8c1.7,0.7,3.6,2,7.4,4.6c2.1,1.4,4.7,3.2,8.2,5.5l0.9,0.6c1,0.8,2.1,1.4,3.2,2c0.5,0.3,1,0.6,1.5,1
	c0.7,0.5,1.3,1.2,1.6,2c0.7,2.5-2.1,4-4.5,2.5l-5.7-3.7c-0.6-0.4-1.5-0.2-1.9,0.5c-0.4,0.6-0.2,1.4,0.4,1.8l8,5.2
	c0.7,0.5,1.3,1.2,1.6,2c0.7,2.6-2.1,4-4.5,2.5l-8-5.2c-0.6-0.4-1.5-0.3-1.9,0.4c-0.4,0.6-0.3,1.5,0.4,1.9c0,0,0,0,0.1,0l9.1,5.8
	c0.7,0.5,1.3,1.2,1.6,2c0.7,2.6-2.1,4-4.5,2.5l-6.7-4.3c-0.6-0.4-1.5-0.2-1.9,0.4c-0.4,0.6-0.2,1.5,0.4,1.9l3.4,2.2
	c0.7,0.5,1.3,1.2,1.6,2c0.7,2.5-2.1,4-4.4,2.5l-9.8-6.1l2.8-3.5c1.7-2.1,1.3-5.1-0.7-6.7c-0.6-0.5-1.4-0.9-2.2-1
	c0.7-2.5-0.7-5.2-3.3-6c-0.3-0.1-0.7-0.2-1-0.2c0.4-2.6-1.3-5.1-3.9-5.5c-1.1-0.2-2.2,0-3.1,0.5c-1-2.5-3.7-3.7-6.2-2.7
	c-0.8,0.3-1.5,0.8-2,1.4l-3.2,4c-1-1.2-2-2.4-2.9-3.5L26.9,41.1z M65.5,37.1L76.3,32l9.5,20.1l-10.9,5.1L74.4,56
	c-0.2-0.7-0.7-1.5-1.3-2.8l-2.9-6.1L65.5,37.1z M30.2,80.2c0.1-0.1,0.2-0.2,0.3-0.3l7.1-8.8c0.2-0.2,0.4-0.4,0.6-0.6l0.9-1.2
	c0.7-0.9,0.6-2.2-0.3-2.9c-0.4-0.3-1-0.5-1.5-0.4c-0.6,0.1-1.1,0.4-1.4,0.8L30,73.9c0,0.1-0.1,0.1-0.1,0.2l-2.6,3.2
	c-0.7,0.9-0.6,2.2,0.3,2.9c0.4,0.3,1,0.5,1.5,0.4C29.5,80.6,29.9,80.5,30.2,80.2L30.2,80.2z M32.9,84.5c0.9,0.7,2.2,0.6,2.9-0.3
	l0.1-0.1l3.2-4c0,0,0.1-0.1,0.1-0.1l3.7-4.6c0.7-0.9,0.6-2.2-0.3-2.9c-0.4-0.3-1-0.5-1.5-0.4c-0.4,0-0.7,0.2-1,0.4l-7.4,9.2
	c-0.1,0.1-0.2,0.2-0.3,0.3c-0.2,0.4-0.2,0.8-0.2,1.2C32.2,83.7,32.4,84.2,32.9,84.5L32.9,84.5z M21.3,69.4l6.6-8.2
	c0.7-0.9,0.4-2.2-0.5-2.9c-0.9-0.6-2.2-0.5-2.8,0.4l-4.1,5.1c0,0.1-0.1,0.1-0.2,0.2l-2.8,3.4c-0.7,0.9-0.6,2.2,0.3,2.9
	c0.4,0.3,1,0.5,1.5,0.4C20.3,70.7,20.7,70.1,21.3,69.4L21.3,69.4z M22.6,75.5c0.9,0.6,2.1,0.5,2.8-0.4c0,0,0,0,0.1-0.1l2.2-2.7
	c0-0.1,0.1-0.1,0.1-0.1l6.8-8.5c0.7-0.9,0.6-2.2-0.3-2.9c-0.4-0.3-1-0.5-1.5-0.4c-0.6,0.1-1.1,0.4-1.4,0.8l-1.4,1.8l-7.7,9.6
	C21.5,73.4,21.7,74.7,22.6,75.5C22.6,75.5,22.6,75.5,22.6,75.5L22.6,75.5z"/>
</svg>
