<?xml version="1.0" encoding="utf-8"?>
<!-- Generator: Adobe Illustrator 23.0.5, SVG Export Plug-In . SVG Version: 6.00 Build 0)  -->
<svg version="1.1" id="Layer_1" xmlns="http://www.w3.org/2000/svg" xmlns:xlink="http://www.w3.org/1999/xlink" x="0px" y="0px"
	 viewBox="0 0 518 518" style="enable-background:new 0 0 518 518;" xml:space="preserve">
<g>
	<path d="M78.8,169.9H170c-0.3,2-0.5,3.9-0.7,5.9v0c-0.3,3.8,1,7.6,3.6,10.4c2.6,2.8,6.2,4.4,10.1,4.4h152c3.8,0,7.5-1.6,10.1-4.4
		s3.9-6.6,3.6-10.4c-0.2-2-0.4-3.9-0.7-5.9h91.1c3.6,0,7.1-1.5,9.6-4.2c2.5-2.7,3.7-6.2,3.4-9.8c-2.3-31.2-22.8-57.3-50.4-68.4
		c10.7-8.6,17.6-21.8,17.6-36.6c0-25.9-21-46.9-46.9-46.9s-46.9,21-46.9,46.9c0,14.8,6.9,28,17.6,36.6
		c-12.1,4.8-22.8,12.5-31.3,22.3c-6.6-4.8-13.9-8.7-21.5-11.6c12.8-9.5,21.1-24.8,21.1-41.9C311.3,27.5,287.8,4,259,4
		s-52.3,23.5-52.3,52.3c0,17.2,8.3,32.4,21.1,41.9c-7.7,2.9-14.9,6.8-21.5,11.6c-8.5-9.9-19.2-17.5-31.3-22.3
		c10.7-8.6,17.6-21.8,17.6-36.6C192.6,25,171.5,4,145.6,4S98.7,25,98.7,50.9c0,14.8,6.9,28,17.6,36.6c-27.7,11-48.1,37.2-50.4,68.4
		c-0.3,3.6,1,7.2,3.4,9.8C71.8,168.4,75.2,169.9,78.8,169.9z M341.4,50.9c0-17.1,13.9-30.9,30.9-30.9s30.9,13.9,30.9,30.9
		c0,17-13.9,30.9-30.9,30.9h0C355.3,81.8,341.4,68,341.4,50.9L341.4,50.9z M372.3,97.8L372.3,97.8c32.2,0,59.5,24.4,63.5,56h-91.6
		c-4.3-12.7-11.4-24.1-20.5-33.5C335.9,106.1,353.6,97.9,372.3,97.8z M222.7,56.3c0-20,16.3-36.3,36.3-36.3s36.3,16.3,36.3,36.3
		c0,20-16.3,36.3-36.3,36.3S222.7,76.3,222.7,56.3L222.7,56.3z M332.5,174.5h-147c4-37.2,35.9-65.9,73.5-65.9
		S328.5,137.3,332.5,174.5z M114.7,50.9c0-17.1,13.9-30.9,30.9-30.9s30.9,13.9,30.9,30.9c0,17-13.9,30.9-30.9,30.9h0
		C128.6,81.8,114.7,68,114.7,50.9L114.7,50.9z M145.6,97.8L145.6,97.8c18.7,0,36.5,8.3,48.6,22.5c-9.1,9.4-16.2,20.9-20.5,33.5H82.1
		C86.1,122.2,113.4,97.9,145.6,97.8z M507.3,384.7l-34.4-172.9c-0.9-4.4-3.4-8.2-7.2-10.7c-3.7-2.5-8.2-3.4-12.6-2.5l-44.3,8.8
		c-4.4,0.9-8.2,3.4-10.7,7.2s-3.4,8.2-2.5,12.6l0.4,2c-26.5,8.7-58.6,11.2-98.6-21.8c-18.4-15.2-42.3-15.7-59.6-1.2l-17.9,14.9
		h-97.4c-1.2-6.6-6.3-12.2-13.3-13.6l-44.3-8.8c-4.4-0.9-8.9,0-12.6,2.5c-3.7,2.5-6.3,6.3-7.2,10.7L10.7,384.7
		c-0.9,4.4,0,8.9,2.5,12.6c2.5,3.7,6.3,6.3,10.7,7.2l44.3,8.8c4.4,0.9,8.9,0,12.6-2.5c3.7-2.5,6.3-6.3,7.2-10.7l0.1-0.7l104.8,104.8
		c6.5,6.5,15,9.7,23.6,9.7c8.5,0,17.1-3.2,23.6-9.7c4.4-4.4,7.4-9.8,8.8-15.7l14.4,14.4c13,13,34.1,13,47.1,0
		c4.3-4.3,7.4-9.8,8.8-15.7c6.2,5.9,14.3,9.2,23,9.2c8.9,0,17.3-3.5,23.6-9.7c7.2-7.2,10.4-16.8,9.6-26.2c0.9,0.1,1.7,0.1,2.6,0.1
		c8.9,0,17.3-3.5,23.6-9.7c8.8-8.8,11.8-21.8,8.2-33.5l19.8-19.8l0.5,2.5c0.9,4.4,3.4,8.2,7.2,10.7c3.7,2.5,8.2,3.4,12.6,2.5
		l44.3-8.8c4.4-0.9,8.2-3.4,10.7-7.2C507.3,393.6,508.2,389.1,507.3,384.7z M71.9,397.5c-0.2,0.1-0.4,0.2-0.6,0.1L27,388.8
		c-0.3-0.1-0.4-0.2-0.5-0.4s-0.2-0.3-0.1-0.6L60.8,215c0-0.2,0.2-0.4,0.4-0.5c0.2-0.1,0.4-0.2,0.6-0.1l44.3,8.8h0
		c0.4,0.1,0.7,0.5,0.6,1L72.3,397C72.2,397.2,72.1,397.4,71.9,397.5z M390.2,439.5c-3.3,3.3-7.6,5-12.3,5s-9-1.8-12.2-5l-75.4-75.4
		c-3.1-3.1-8.2-3.2-11.3-0.1c-3.1,3.1-3.2,8.2-0.1,11.3c0,0,0,0,0.1,0.1l75.4,75.4c6.8,6.8,6.8,17.7,0,24.5c-3.3,3.3-7.6,5-12.3,5
		s-9-1.8-12.2-5l-79.7-79.7c-3.1-3.1-8.2-3.1-11.3,0.1c-3.1,3.1-3.1,8.1,0,11.2l60.1,60.1l0,0c6.7,6.8,6.7,17.7,0,24.5
		c-6.8,6.8-17.7,6.8-24.5,0l-64.4-64.4c-3.1-3.1-8.2-3.1-11.3,0.1c-3.1,3.1-3.1,8.1,0,11.2l29.9,29.9l0,0c3.2,3.3,5,7.6,5,12.2
		c0,4.6-1.8,9-5,12.2c-6.8,6.8-17.7,6.8-24.5,0L91.9,380.6l28.6-143.5h80.3l-22.4,18.7c-9.9,8.3-14.2,19.6-11.7,31.1l18,82.6
		c0.9,4.3,5.2,7.1,9.5,6.1c0.1,0,0.1,0,0.2,0c21.7-5.4,36.2-15.8,44.4-32c7-14,8.4-29.9,9.9-46.7c0.2-2.1,0.4-4.3,0.6-6.4
		c0-0.1,0-0.2,0-0.3c2.9-1,16,1.9,35.9,19.9l108.5,110.1C396.6,426.6,395.3,434.5,390.2,439.5z M400.4,404.1l-104-105.5
		c-0.1-0.1-0.2-0.2-0.3-0.3c-20.8-19-40.5-27.6-52.6-23.1c-5.7,2.1-9.4,7-10.2,13.4c0,0.1,0,0.1,0,0.2c-0.2,2.2-0.4,4.4-0.6,6.6
		c-2.6,29.7-4.6,51.8-34.3,62.2l-16.2-74.2c-1.6-7.4,3.3-12.8,6.3-15.4l59.4-49.6c11.2-9.3,26.9-8.8,39.2,1.3
		c45.1,37.2,82.9,34.5,112,25.3l26.6,133.7L400.4,404.1z M491.5,388.4c-0.1,0.2-0.3,0.3-0.5,0.4l-44.3,8.8c-0.3,0.1-0.5,0-0.6-0.1
		s-0.3-0.3-0.4-0.5l-34.4-172.9c-0.1-0.3,0-0.5,0.1-0.6s0.3-0.3,0.5-0.4h0l44.3-8.8c0,0,0.1,0,0.2,0c0.2,0,0.4,0.1,0.5,0.1
		c0.1,0.1,0.3,0.3,0.4,0.5l34.4,172.9C491.7,388,491.6,388.3,491.5,388.4L491.5,388.4z"/>
</g>
</svg>
