<?xml version="1.0" encoding="utf-8"?>
<!-- Generator: Adobe Illustrator 23.0.5, SVG Export Plug-In . SVG Version: 6.00 Build 0)  -->
<svg version="1.1" id="Layer_1" xmlns="http://www.w3.org/2000/svg" xmlns:xlink="http://www.w3.org/1999/xlink" x="0px" y="0px"
	 viewBox="0 0 78.6 82.3" style="enable-background:new 0 0 78.6 82.3;" xml:space="preserve">
<g>
	<path d="M32,13.8l-0.7,3.9c-0.2,1.2,0.3,2.4,1.3,3.1s2.2,0.8,3.3,0.2l3.5-1.8l3.5,1.8c0.5,0.3,1,0.4,1.5,0.4c0.6,0,1.3-0.2,1.8-0.6
		c1-0.7,1.5-1.9,1.3-3.1l-0.7-3.9l2.8-2.7c0.9-0.8,1.2-2.1,0.8-3.2c-0.4-1.1-1.3-2-2.5-2.1l-3.9-0.6l-1.7-3.5
		c-0.5-1.1-1.6-1.8-2.8-1.8s-2.3,0.7-2.8,1.8l-1.7,3.5l-3.9,0.6c-1.2,0.2-2.2,1-2.5,2.1c-0.4,1.1-0.1,2.4,0.8,3.2L32,13.8L32,13.8z
		 M35.2,8.3c1-0.2,1.9-0.8,2.4-1.7L39.3,3L41,6.6c0.5,0.9,1.3,1.6,2.4,1.7l3.9,0.6l-2.8,2.7c-0.7,0.7-1.1,1.8-0.9,2.8l0.7,3.9
		l-3.5-1.8c-0.5-0.2-1-0.4-1.5-0.4s-1,0.1-1.5,0.4l-3.5,1.8l0.7-3.9c0.2-1-0.2-2-0.9-2.8l-2.8-2.7L35.2,8.3L35.2,8.3z"/>
	<path d="M14.6,30.4c0.5,0.3,1,0.4,1.5,0.4c0.6,0,1.3-0.2,1.8-0.6c1-0.7,1.5-1.9,1.3-3.1l-0.7-3.9l2.8-2.7c0.9-0.8,1.2-2.1,0.8-3.2
		c-0.4-1.1-1.3-2-2.5-2.1l-3.9-0.6l-1.7-3.5c-0.5-1.1-1.6-1.8-2.8-1.8S8.8,10,8.3,11l-1.7,3.5l-3.9,0.6c-1.2,0.2-2.2,1-2.5,2.1
		c-0.4,1.1-0.1,2.4,0.8,3.2l2.8,2.7l-0.7,3.9c-0.2,1.2,0.3,2.4,1.3,3.1c1,0.7,2.2,0.8,3.3,0.2l3.5-1.8L14.6,30.4L14.6,30.4z
		 M6.2,27.6l0.7-3.9c0.2-1-0.2-2-0.9-2.8l-2.8-2.7L7,17.7c1-0.1,1.9-0.8,2.4-1.7l1.7-3.5l1.7,3.5c0.5,0.9,1.3,1.6,2.4,1.7l3.9,0.6
		L16.3,21c-0.7,0.7-1.1,1.8-0.9,2.8l0.7,3.9l-3.5-1.8c-0.5-0.2-1-0.4-1.5-0.4s-1,0.1-1.5,0.4L6.2,27.6L6.2,27.6z"/>
	<path d="M59.1,62.3c2.3-3.7,3.7-8,3.7-12.6c0-13-10.5-23.5-23.5-23.5S15.8,36.7,15.8,49.6c0,4.7,1.4,9,3.7,12.6l-8.1,8.1
		c-0.4,0.4-0.6,1-0.4,1.6s0.7,1,1.3,1l7,1l1,7c0.1,0.6,0.5,1.1,1,1.3c0.2,0,0.3,0.1,0.5,0.1c0.4,0,0.8-0.2,1.1-0.5l9.7-9.7
		c2.1,0.6,4.4,1,6.7,1s4.6-0.4,6.7-1l9.7,9.7c0.3,0.3,0.7,0.5,1.1,0.5c0.2,0,0.3,0,0.5-0.1c0.6-0.2,1-0.7,1-1.3l1-7l7-1
		c0.6-0.1,1.1-0.5,1.3-1s0-1.2-0.4-1.6L59.1,62.3L59.1,62.3z M22.9,77.4l-0.7-5c-0.1-0.7-0.6-1.2-1.3-1.3l-5-0.7l5.5-5.5
		c2.2,2.6,4.9,4.7,8,6.1L22.9,77.4L22.9,77.4z M18.9,49.6c0-11.2,9.1-20.4,20.4-20.4s20.4,9.1,20.4,20.4S50.5,70,39.3,70
		S18.9,60.9,18.9,49.6z M57.7,71.1c-0.7,0.1-1.2,0.6-1.3,1.3l-0.7,5l-6.5-6.5c3.1-1.5,5.8-3.5,8-6.1l5.5,5.5L57.7,71.1L57.7,71.1z"
		/>
	<path d="M78.5,17.3c-0.4-1.1-1.3-2-2.5-2.1L72,14.6l-1.7-3.5c-0.5-1.1-1.6-1.8-2.8-1.8s-2.3,0.7-2.8,1.8L63,14.6l-3.9,0.6
		c-1.2,0.2-2.2,1-2.5,2.1c-0.4,1.1-0.1,2.4,0.8,3.2l2.8,2.7l-0.7,3.9c-0.2,1.2,0.3,2.4,1.3,3.1c0.5,0.4,1.2,0.6,1.8,0.6
		c0.5,0,1-0.1,1.5-0.4l3.5-1.8l3.5,1.8c1.1,0.6,2.3,0.5,3.3-0.2s1.5-1.9,1.3-3.1l-0.7-3.9l2.8-2.7C78.5,19.6,78.8,18.4,78.5,17.3
		L78.5,17.3z M72.7,21c-0.7,0.7-1.1,1.8-0.9,2.8l0.7,3.9L69,25.8c-0.5-0.2-1-0.4-1.5-0.4s-1,0.1-1.5,0.4l-3.5,1.8l0.7-3.9
		c0.2-1-0.2-2-0.9-2.8l-2.8-2.7l3.9-0.6c1-0.2,1.9-0.8,2.4-1.7l1.7-3.5l1.7,3.5c0.5,0.9,1.3,1.6,2.4,1.7l3.9,0.6L72.7,21L72.7,21z"
		/>
	<path d="M39.3,32.5c-9.5,0-17.2,7.7-17.2,17.2s7.7,17.2,17.2,17.2s17.2-7.7,17.2-17.2S48.8,32.5,39.3,32.5z M31.9,61.6
		c0.6-3.6,3.7-6.3,7.4-6.3s6.8,2.7,7.4,6.3c-2.2,1.3-4.7,2.1-7.4,2.1S34,62.9,31.9,61.6z M49.4,59.4c-1.5-4.2-5.5-7.2-10.1-7.2
		s-8.7,3-10.1,7.2c-2.4-2.5-4-6-4-9.8c0-7.8,6.3-14.1,14.1-14.1s14.1,6.3,14.1,14.1C53.4,53.4,51.8,56.9,49.4,59.4L49.4,59.4z"/>
	<path d="M39.3,39.2c-3.4,0-6.1,2.8-6.1,6.1s2.8,6.1,6.1,6.1s6.1-2.8,6.1-6.1S42.7,39.2,39.3,39.2z M39.3,48.4c-1.7,0-3-1.4-3-3
		s1.4-3,3-3s3,1.4,3,3S41,48.4,39.3,48.4z"/>
</g>
</svg>
