<?xml version="1.0" encoding="utf-8"?>
<!-- Generator: Adobe Illustrator 23.0.5, SVG Export Plug-In . SVG Version: 6.00 Build 0)  -->
<svg version="1.1" id="Layer_1" xmlns="http://www.w3.org/2000/svg" xmlns:xlink="http://www.w3.org/1999/xlink" x="0px" y="0px"
	 viewBox="0 0 474.3 474.3" style="enable-background:new 0 0 474.3 474.3;" xml:space="preserve">
<g>
	<path d="M74.2,89.7l14.9,30.8l33.8,4.6c6.7,0.9,9.1,9.2,4.5,13.6l-24.7,23.7l6.1,33.6c1.2,6.6-5.8,11.6-11.6,8.4l-30.1-16.2
		L37,204.4c-5.8,3.1-13.1-1.7-11.5-8.9l6-33.2L6.8,138.6c-4.8-4.6-2.2-12.8,4.6-13.7l33.7-4.6L60,89.5
		C62.8,83.6,71.4,83.7,74.2,89.7z M76.6,131.3l-9.5-19.8l-9.6,19.8c-1.1,2.3-3.4,4.1-6.1,4.5l-21.7,2.9l15.9,15.2
		c1.8,1.8,2.8,4.4,2.3,7.1L44,182.6l19.2-10.3c2.3-1.2,5.2-1.4,7.6,0l19.3,10.4l-3.8-21.2c-0.6-2.6,0.1-5.5,2.2-7.6l15.9-15.2
		l-21.5-2.9C80.3,135.5,77.8,133.8,76.6,131.3L76.6,131.3z M244.4,17.2L259.3,48l33.9,4.6c6.7,0.9,9.1,9.2,4.5,13.7L273,90l6.1,33.6
		c1.2,6.6-5.8,11.6-11.6,8.4l-30.3-16.2L207.1,132c-5.8,3.1-13.1-1.7-11.5-8.9l6-33.2l-24.8-23.7c-4.8-4.6-2.2-12.8,4.6-13.7
		l33.7-4.6L230,17.2C233,11.1,241.5,11.2,244.4,17.2z M246.8,58.8L237.2,39l-9.5,19.8c-1.1,2.3-3.4,4.1-6.1,4.5l-21.8,2.9l15.9,15.2
		c1.9,1.8,2.8,4.4,2.3,7.1l-3.9,21.6l19.3-10.3c2.3-1.2,5.1-1.4,7.6,0l19.3,10.4L256.5,89c-0.6-2.6,0.1-5.5,2.2-7.6l15.9-15.2
		l-21.5-3C250.4,63,248,61.3,246.8,58.8z M414.5,89.7l14.9,30.8l33.8,4.6c6.7,0.9,9.2,9.2,4.5,13.6L443,162.4l6.1,33.6
		c1.2,6.6-5.8,11.6-11.6,8.4l-30.1-16.2l-30.1,16.2c-5.8,3.1-13.1-1.7-11.6-8.9l6-33.2L347,138.6c-4.8-4.6-2.2-12.8,4.6-13.7
		l33.7-4.6l14.9-30.8C403.1,83.6,411.7,83.7,414.5,89.7z M416.9,131.3l-9.5-19.8l-9.6,19.8c-1.1,2.3-3.3,4.1-6.1,4.5l-21.7,2.9
		l15.8,15.2c1.8,1.8,2.8,4.4,2.3,7.1l-3.9,21.6l19.3-10.3c2.3-1.2,5.2-1.4,7.6,0l19.4,10.4l-3.8-21.2c-0.6-2.6,0.1-5.5,2.2-7.6
		l15.8-15.2l-21.5-2.9C420.6,135.5,418.1,133.8,416.9,131.3L416.9,131.3z M200.1,293.9c-2.2-3.8-0.9-8.7,2.9-10.9s8.7-0.9,10.9,2.9
		l10.5,18.2l37.3-37.3c3.1-3.1,8.2-3.1,11.3,0s3.1,8.2,0,11.3l-44.7,44.7c-3.7,3.7-9.9,2.9-12.5-1.6L200.1,293.9z M237.2,209.4
		c43.5,0,78.8,35.3,78.8,78.8S280.7,367,237.2,367s-78.8-35.3-78.8-78.8S193.7,209.4,237.2,209.4L237.2,209.4z M281.6,243.8
		c-24.5-24.5-64.3-24.5-88.8,0s-24.5,64.3,0,88.8s64.3,24.5,88.8,0C306.1,308,306.1,268.3,281.6,243.8L281.6,243.8z M237.2,159.9
		c70.8,0,128.2,57.4,128.2,128.2c0,26.8-8.2,51.7-22.3,72.3l38.3,66.3c3.7,6.2-1.4,13.2-8,12.2l-39.2-6.2l-21,25.8
		c-3.7,4.8-10.6,4-13.3-0.8l-26.8-46.4c-23.4,6.8-48.5,6.8-71.8,0l-26.8,46.4c-2.7,4.8-9.6,5.6-13.3,0.8l-21-25.8l-39.2,6.2
		c-6.7,1.1-11.4-6.2-8.2-11.9l38.5-66.6c-34.8-50.9-28.3-119.4,15.3-163C169.7,174.3,201.8,159.9,237.2,159.9L237.2,159.9z
		 M332.5,373.9c-12.2,13.6-27.2,24.5-44.2,31.9l19.6,33.9l16.8-20.6c1.9-2.4,4.8-3.3,7.6-2.8l27,4.3L332.5,373.9z M186,405.8
		c-16.9-7.4-31.9-18.3-44.1-31.8L115,420.6l27-4.3c2.7-0.5,5.7,0.5,7.6,2.8l16.8,20.6L186,405.8z M316.6,208.8
		c-43.8-43.8-114.9-43.8-158.7,0s-43.8,114.9,0,158.7c43.9,43.8,114.9,43.8,158.7,0S360.4,252.6,316.6,208.8L316.6,208.8z"/>
</g>
</svg>
