<?xml version="1.0" encoding="utf-8"?>
<!-- Generator: Adobe Illustrator 23.0.5, SVG Export Plug-In . SVG Version: 6.00 Build 0)  -->
<svg version="1.1" id="Layer_1" xmlns="http://www.w3.org/2000/svg" xmlns:xlink="http://www.w3.org/1999/xlink" x="0px" y="0px"
	 viewBox="0 0 479.5 295" style="enable-background:new 0 0 479.5 295;" xml:space="preserve">
<title>Money_Set</title>
<path d="M113.1,185.8l-27.1-13.6c-3-1.5-6.3-2.3-9.6-2.3H43.6c-9.3,0.1-16.9,7.6-16.9,16.9v22.3c0,6.6,5.4,12,12,12h68.5
	c7.2,0,13.1-5.9,13.1-13.1v-10.7C120.3,192.6,117.5,188,113.1,185.8z M111.3,208.2c0,2.3-1.8,4.1-4.1,4.1H38.7c-1.7,0-3-1.3-3-3
	v-22.4c0-4.4,3.5-7.9,7.9-7.9h32.7c1.9,0,3.8,0.5,5.6,1.3l27.2,13.6c1.4,0.7,2.3,2.1,2.3,3.6L111.3,208.2z"/>
<path d="M270.6,212.3H141c-2.5,0-4.5,2-4.5,4.5s2,4.5,4.5,4.5h129.6c2.5,0,4.5-2,4.5-4.5S273.1,212.3,270.6,212.3z"/>
<path d="M475.2,141.3l-93.9-112c-3.9-4.6-9.9-7-16.9-6.8L333,23.7c-4.9,0.2-9.8,1.5-14.2,3.8c-7.7-16.8-24.5-27.5-43-27.5h-140
	c-19.2,0-36.5,11.5-43.8,29.3l-18.6,45l-33.3-4.8c-10.7-1.9-20.9,5.3-22.8,16s5.3,20.9,16,22.8c0.4,0.1,0.8,0.1,1.2,0.2
	c0.9,0.1,1.9,0.2,2.8,0.2h21.9l-1.3,3.2l-30.7,16.8C10.4,137.9,0,155.4,0,174.5v51.2c0,14.9,11.2,27.3,26,28.9v27.2
	c0,7.2,5.9,13.1,13.1,13.1h56.4c7.3,0,13.2-5.8,13.2-13.1c0,0,0,0,0,0v-27H303v27c0,7.2,5.9,13.1,13.1,13.1h56.4
	c7.2,0,13.1-5.9,13.1-13.1v-27.2c14.8-1.6,26-14,26-28.9V220c6-1.6,11.6-4.5,16.3-8.5l37.9-31.8c6-4.9,10.5-11.5,12.7-18.9
	C480.6,153.3,479.4,146.4,475.2,141.3z M37.3,99.7c-5.9,0-10.7-4.8-10.7-10.7c0-5.9,4.8-10.7,10.7-10.7c0.5,0,1,0,1.5,0.1l29.5,4.2
	l-6.9,17.1L37.3,99.7z M99.7,281.8c0,2.3-1.8,4.1-4.1,4.1H39.2c-2.3,0-4.1-1.8-4.1-4.1v-26.4h64.7V281.8z M376.6,281.8
	c0,2.3-1.9,4.1-4.1,4.1h-56.4c-2.3,0-4.1-1.8-4.1-4.1v-26.4h64.7V281.8z M402.6,225.8c0,11-9,20-20,20l0,0l0,0H29c-11,0-20-9-20-20
	v-51.3c0-15.8,8.6-30.3,22.5-37.9l32.1-17.5c0.9-0.5,1.6-1.3,2-2.2l34.7-84.2C106.3,18.3,120.3,9,135.8,9h140
	c15.4,0,29.3,9.2,35.3,23.4c-5.1,4.1-9.2,9.3-11.9,15.3l-1.7-4.5c-1-2.5-2.3-4.9-3.8-7.2c-5.4-7.5-14.1-12-23.4-12h-129
	c-11.9,0-22.6,7.4-26.9,18.5l-27.6,71.7c-0.9,2.3,0.3,4.9,2.6,5.8c0.5,0.2,1.1,0.3,1.6,0.3h219l41.6,49.7h-16.3
	c-3.3,0-6.6,0.8-9.6,2.3l-27.1,13.6c-4.4,2.2-7.2,6.7-7.2,11.7v10.7c0,7.2,5.9,13.1,13.1,13.1h68.5c6.4,0,11.7-5.1,12-11.5l3.6,4.2
	c3.6,4.1,8.7,6.6,14.2,6.8L402.6,225.8z M267.9,48.3c-3,5.5-2.3,12,2,19.4c4.8,8.2,12.8,12,21.6,13.3l-0.7,3.2
	c-1.4,6.9-0.1,13.2,3.8,17.8l7.8,9.3H97.5l25.3-65.6c3-7.6,10.3-12.7,18.5-12.7h129c4.7,0,9.3,1.7,12.9,4.8
	C277.4,39.5,271,42.5,267.9,48.3z M288.9,45.7l6.5,16.9l-2,9.5c-6.7-0.9-12.5-3.5-15.7-9c-2.6-4.5-3.2-8-1.9-10.6
	C277.9,48.8,284,46.7,288.9,45.7L288.9,45.7z M359.1,179l16.9,20.1v10.1c0,1.7-1.3,3-3,3h-68.5c-2.3,0-4.1-1.8-4.1-4.1v-10.7
	c0-1.5,0.9-3,2.3-3.6l27.1-13.6c1.7-0.9,3.6-1.3,5.6-1.3L359.1,179z M469.7,158.4c-1.7,5.7-5.1,10.7-9.8,14.4l-37.9,31.8
	c-9.5,8-21.7,9.6-26.7,3.7l-93.9-112c-2-2.4-2.7-6.1-1.8-10.2l1-4.5c6.7-0.2,13.3-1.1,19.8-2.7c0.3,0.4,0.5,0.7,0.8,1.1
	c6.2,7.5,17.3,8.5,24.8,2.3c7.5-6.2,8.5-17.3,2.3-24.8c-6.2-7.5-17.3-8.5-24.8-2.3c-4.5,3.7-6.8,9.4-6.3,15.1
	c-4.8,1.1-9.7,1.8-14.7,2.1l3.6-17.1c2.5-11.5,15.4-22.3,27.1-22.8l31.3-1.1h0.7c3.9,0,7.1,1.3,9,3.6l93.9,112
	C470.5,149.8,471,153.8,469.7,158.4z M336.9,68.8c-0.8-2.3-3.4-3.5-5.8-2.7c0,0,0,0,0,0l-0.2,0.1c-0.1,0-1.9,0.7-4.7,1.6
	c0.2-2.2,1.3-4.2,3-5.7l0,0c1.5-1.3,3.5-2,5.5-2h0.8c4.7,0.4,8.2,4.6,7.7,9.3s-4.6,8.2-9.3,7.7c-1.3-0.1-2.5-0.5-3.6-1.2
	c2.2-0.7,3.6-1.3,3.9-1.4C336.5,73.8,337.8,71.2,336.9,68.8C336.9,68.9,336.9,68.9,336.9,68.8z"/>
<path d="M409.7,119.3c-3.2,0.4-8.4,2.3-15.5,5.9l-6.6,3.3c-2.2,1.2-4.7,2.1-7.1,2.5c-3.2,0.5-5.7-0.3-7.5-2.5
	c-1.6-1.9-2.2-4.4-1.6-6.8c0.6-2.6,2.5-5.2,5.6-7.8c4.7-3.9,8.9-5.6,12.7-5.1c2.4,0.5,4.6,1.7,6.3,3.5l7.9-6.6
	c-2.7-3.3-6.4-5.6-10.5-6.4c-5.5-1.3-11.2-0.1-17.1,3.6l-5.5-6.6l-8,6.7l5.5,6.5c-3.4,3.4-5.7,7.8-6.6,12.5
	c-1,5.6,0.7,11.4,4.5,15.6c3.3,4,7.7,5.6,13.2,4.8c3.1-0.4,7.2-1.8,12.3-4.3l8-3.9c4.3-2.1,7.3-3.3,9.1-3.6c2.6-0.5,5.2,0.4,6.9,2.5
	c2.3,2.5,2.9,6,1.7,9.1c-1.3,3.5-3.5,6.5-6.4,8.8c-5.2,4.3-9.9,6-14.3,5.1c-2.4-0.5-4.9-2.1-7.4-4.6l-8,6.7
	c3.9,4.5,9.4,7.5,15.3,8.3c4.7,0.6,9.9-1,15.6-4.9l4,4.7l7.9-6.6l-4-4.7c4.5-4.7,7.1-9.4,7.6-14.2c0.8-5.6-0.9-11.3-4.6-15.6
	C419.1,120.7,414.7,118.7,409.7,119.3z"/>
</svg>
