<?xml version="1.0" encoding="utf-8"?>
<!-- Generator: Adobe Illustrator 23.0.5, SVG Export Plug-In . SVG Version: 6.00 Build 0)  -->
<svg version="1.1" id="Layer_1" xmlns="http://www.w3.org/2000/svg" xmlns:xlink="http://www.w3.org/1999/xlink" x="0px" y="0px"
	 viewBox="0 0 23.6 16.3" style="enable-background:new 0 0 23.6 16.3;" xml:space="preserve">
<g>
	<path d="M23.6,6.2C23.6,6.2,23.6,6.2,23.6,6.2C23.6,6.2,23.6,6.1,23.6,6.2c0-0.3-0.1-0.5-0.2-0.8c-0.2-0.4-0.4-0.7-0.7-0.9
		c0,0,0,0,0,0c0,0,0,0,0,0c-1.5-1.4-4-1.4-4.5-1.4c-2-1.9-4.7-3-7.4-3.1c0,0,0,0,0,0c0,0,0,0,0,0c0,0,0,0,0,0C7.5,0,4.7,2,3.5,3.2
		c0,0,0,0,0,0C3.2,3.3,3.1,3.5,2.9,3.6C2.8,3.8,2.7,3.9,2.5,3.9C1.8,4.3,1.2,4.8,0.8,5.4c0,0,0,0,0,0C0.3,6.1,0,6.9,0,7.8
		C0,8,0.1,8.3,0.3,8.5s0.4,0.3,0.7,0.3c0,0,0.1,0,0.1,0h1c0.4,0.9,1.3,1.5,2.3,1.5c1,0,1.9-0.6,2.3-1.5h0.8C7,9.6,6.8,10.4,6.8,11.2
		c0,2.8,2.2,5,5,5c2.8,0,5-2.2,5-5c0-0.9-0.2-1.7-0.6-2.4h1.3c0.4,0.9,1.3,1.5,2.3,1.5c1,0,1.9-0.6,2.3-1.5h0.5c0.1,0,0.1,0,0.2-0.1
		c0.5-0.6,0.7-1.3,0.8-2C23.6,6.6,23.6,6.4,23.6,6.2z M22.9,5.6c0,0.1,0,0.1,0.1,0.2c-0.2-0.1-0.3-0.2-0.4-0.4
		c-0.1-0.1-0.1-0.3,0-0.4C22.7,5.2,22.8,5.4,22.9,5.6z M10.4,3.1H4.3C5.7,2,7.9,0.6,10.4,0.5V3.1z M10.9,0.5
		c2.4,0.2,4.6,1.1,6.4,2.6h-6.4V0.5z M2.2,4.7v0.5c0,0.1-0.1,0.1-0.1,0.1H1.5C1.7,5.1,1.9,4.9,2.2,4.7z M4.4,9.9
		c-1.1,0-2.1-0.9-2.1-2.1s0.9-2.1,2.1-2.1s2,0.9,2,2.1C6.4,8.9,5.5,9.9,4.4,9.9z M6.8,8.3c0-0.2,0.1-0.4,0.1-0.5
		c0-1.4-1.1-2.6-2.5-2.6S1.8,6.4,1.8,7.8c0,0.2,0,0.4,0.1,0.5L1,8.3c-0.1,0-0.3-0.1-0.4-0.2C0.5,8.1,0.5,7.9,0.5,7.8
		c0-0.7,0.2-1.4,0.6-2h1c0.3,0,0.6-0.3,0.6-0.6V4.4c0,0,0,0,0,0C2.9,4.3,3.1,4.2,3.3,4c0.1-0.1,0.3-0.2,0.4-0.4h6.7v2.9
		c-1.1,0.3-2,1-2.7,1.9H6.8z M11.8,15.8c-2.5,0-4.5-2-4.5-4.5s2-4.5,4.5-4.5c2.5,0,4.5,2,4.5,4.5S14.3,15.8,11.8,15.8z M19.8,9.9
		c-1.1,0-2-0.9-2-2.1s0.9-2.1,2-2.1s2,0.9,2,2.1C21.8,8.9,20.9,9.9,19.8,9.9z M22.5,8.3h-0.3c0-0.2,0.1-0.4,0.1-0.5
		c0-1.4-1.1-2.6-2.5-2.6s-2.5,1.1-2.5,2.6c0,0.2,0,0.4,0.1,0.5h-1.4c-0.9-1.3-2.4-2.1-4.1-2.1c-0.3,0-0.6,0-0.9,0.1V3.6H18
		c0,0,0,0,0,0s0,0,0,0c0,0,2.6-0.1,4.1,1.1c-0.2,0.3-0.2,0.7,0,1c0.2,0.3,0.6,0.6,1,0.7c0,0.1,0,0.2,0,0.3
		C23.1,7.3,22.8,7.9,22.5,8.3z"/>
	<path d="M4.4,6.2c-0.9,0-1.6,0.7-1.6,1.6c0,0.9,0.7,1.6,1.6,1.6S6,8.7,6,7.8C6,6.9,5.2,6.2,4.4,6.2z M4.4,8.9
		c-0.6,0-1.1-0.5-1.1-1.1s0.5-1.1,1.1-1.1s1.1,0.5,1.1,1.1S5,8.9,4.4,8.9z"/>
	<path d="M19.8,6.2c-0.9,0-1.6,0.7-1.6,1.6c0,0.9,0.7,1.6,1.6,1.6c0.9,0,1.6-0.7,1.6-1.6C21.4,6.9,20.6,6.2,19.8,6.2z M19.8,8.9
		c-0.6,0-1.1-0.5-1.1-1.1s0.5-1.1,1.1-1.1s1.1,0.5,1.1,1.1S20.4,8.9,19.8,8.9z"/>
	<path d="M12.5,4.2h-1c-0.1,0-0.3,0.1-0.3,0.3s0.1,0.3,0.3,0.3h1c0.1,0,0.3-0.1,0.3-0.3S12.7,4.2,12.5,4.2z"/>
	<path d="M11.9,9.9L11.7,10c-0.1,0-0.1,0.1-0.1,0.2c0,0.2,0,0.3,0.2,0.4l1.4,0.4c0,0,0,0,0,0c0,0,0.1,0,0.1,0c0.1,0,0.3-0.1,0.3-0.2
		L14,9.3c0-0.1,0-0.1,0-0.2C13.9,9,13.7,8.9,13.6,9l-0.2,0.1L13,8.3c-0.2-0.4-0.7-0.6-1.1-0.6L11,7.8c-0.1,0-0.2,0-0.3,0.1
		c0,0,0,0,0,0c0,0,0,0,0,0c0,0,0,0,0,0c0,0,0,0,0,0c-0.2,0.1-0.4,0.3-0.5,0.5L9.7,9.3c-0.1,0.2,0,0.4,0.1,0.5l0.9,0.5c0,0,0,0,0,0
		c0.1,0,0.1,0,0.2,0c0,0,0.1,0,0.1,0c0.1,0,0.2-0.1,0.2-0.2l0.4-0.8L11.9,9.9z M11.9,8.2c0.3,0,0.5,0.1,0.6,0.3l0.5,1
		c0.1,0.1,0.2,0.1,0.3,0.1l-0.2,0.8l-0.8-0.2c0,0,0.1-0.1,0.1-0.1c0-0.1,0-0.2,0-0.2l-0.6-1.1c0,0,0,0,0,0c0-0.1-0.1-0.2-0.1-0.3
		c0,0,0,0,0,0c0-0.1-0.1-0.1-0.1-0.2c0,0,0,0,0-0.1L11.9,8.2z M10.8,9.7l-0.6-0.4l0.5-0.8c0-0.1,0.1-0.1,0.2-0.2
		c0.2,0.1,0.4,0.2,0.5,0.4L10.8,9.7z"/>
	<path d="M10.7,12.5H9.8l0.3-0.5l0.1,0.1c0.1,0.1,0.3,0.1,0.4,0c0.1-0.1,0.1-0.2,0.1-0.3l-0.3-1.4c0-0.2-0.2-0.3-0.4-0.2l-1.4,0.3
		c0,0-0.1,0-0.1,0c-0.1,0-0.1,0.1-0.1,0.2c0,0.1,0,0.2,0,0.2c0,0,0.1,0.1,0.1,0.1v0L8.7,11l-0.5,0.8C8,12.2,8,12.7,8.3,13.1l0.5,0.7
		C8.8,13.8,8.9,13.9,9,14c0,0,0,0,0.1,0c0.2,0.1,0.4,0.2,0.6,0.2h1.1c0.2,0,0.4-0.2,0.4-0.4v-1C11.1,12.6,10.9,12.5,10.7,12.5z
		 M8.7,12.8c-0.2-0.2-0.2-0.5,0-0.7l0.6-1c0.1-0.1,0-0.2,0-0.3l0.8-0.2l0.2,0.8c0,0-0.1,0-0.1,0c-0.1,0-0.2,0.1-0.2,0.1l-0.7,1
		c0,0,0,0,0,0C9.1,12.7,9,12.9,8.9,13c0,0,0,0.1,0,0.1L8.7,12.8z M10.6,13.7H9.7c-0.1,0-0.2,0-0.3-0.1c0-0.2,0-0.4,0.1-0.7h1
		L10.6,13.7L10.6,13.7z"/>
	<path d="M14.6,10.6c-0.1,0-0.2,0-0.3,0l-0.9,0.5c-0.1,0-0.1,0.1-0.2,0.2c0,0.1,0,0.2,0,0.3l0.5,0.8l-0.6,0l0-0.2
		c0-0.1,0-0.2-0.1-0.2c-0.1-0.1-0.3-0.1-0.4,0l-1,1c-0.1,0.1-0.1,0.3,0,0.5l1,1c0,0.1,0.1,0.1,0.2,0.1c0.2,0,0.3-0.1,0.3-0.3l0-0.2
		l0.9,0c0,0,0,0,0,0c0.5,0,0.9-0.3,1-0.7l0.3-0.8c0-0.1,0.1-0.2,0.1-0.3c0-0.2,0-0.5-0.2-0.7l-0.5-0.9
		C14.8,10.7,14.7,10.6,14.6,10.6z M14.7,13.3c-0.1,0.2-0.3,0.4-0.6,0.4c0,0,0,0,0,0l-1.1,0c0,0-0.2,0-0.2,0.1c0,0-0.1,0.1-0.1,0.1
		l-0.6-0.6l0.6-0.6c0,0,0,0.1,0.1,0.1c0,0,0.1,0.1,0.2,0.1l1.3,0c0.1,0,0.2,0,0.2,0c0,0,0,0,0,0c0,0,0.1,0,0.1,0c0.1,0,0.1,0,0.2,0
		c0,0,0,0,0,0L14.7,13.3z M15,12.2c-0.1,0.1-0.2,0.2-0.3,0.2c0,0,0,0,0,0c-0.1,0-0.2,0-0.3,0l-0.5-0.9l0.6-0.4l0.5,0.8
		C15,12,15,12.1,15,12.2z"/>
</g>
</svg>
