<?xml version="1.0" encoding="utf-8"?>
<!-- Generator: Adobe Illustrator 23.0.5, SVG Export Plug-In . SVG Version: 6.00 Build 0)  -->
<svg version="1.1" id="Layer_1" xmlns="http://www.w3.org/2000/svg" xmlns:xlink="http://www.w3.org/1999/xlink" x="0px" y="0px"
	 viewBox="0 0 95.1 95.1" style="enable-background:new 0 0 95.1 95.1;" xml:space="preserve">
<style type="text/css">
	.st0{fill-rule:evenodd;clip-rule:evenodd;}
</style>
<path class="st0" d="M66.3,57.5v-4.6c0-1.4-0.6-2.6-1.6-3.5c-5.4-4.5-6.4-12.5-2.2-18.2c1.7-2.3,4.1-4,6.9-4.8
	c0.9-0.3,1.8,0.4,1.8,1.4v10.4h3.9V27.8c0-0.9,0.9-1.7,2-1.3c2.8,0.8,5.1,2.5,6.8,4.8c4.3,5.7,3.3,13.7-2.2,18.2
	c-1.1,0.9-1.6,2.1-1.6,3.5v4.6c0.5,0.2,0.9,0.4,1.4,0.7l1.7-1.3c1.6-1.2,3.7-1,5.1,0.3c1,1,1.9,1.7,2,3.3c0.1,0.9-0.2,1.8-0.8,2.6
	l-1.3,1.7c0.6,1.1,1.1,2.3,1.5,3.6l2.1,0.3c1.9,0.3,3.4,1.9,3.4,3.8c0,1.4,0.1,2.5-1,3.7c-0.6,0.7-1.4,1.2-2.4,1.3l-2.2,0.3
	c-0.4,1.2-0.9,2.4-1.5,3.6l1.3,1.7c1.2,1.6,1,3.7-0.3,5.1c-1,1-1.7,1.9-3.3,2c-0.9,0.1-1.8-0.2-2.6-0.8l-1.7-1.3
	c-1.1,0.6-2.3,1.1-3.6,1.5l-0.3,2.1c-0.3,1.9-1.9,3.4-3.8,3.4c-1.4,0-2.5,0.1-3.7-1c-0.7-0.6-1.2-1.4-1.3-2.4l-0.3-2.2
	c-1.2-0.4-2.4-0.9-3.6-1.5l-1.7,1.3c-1.6,1.2-3.7,1-5.1-0.3c-0.9-0.9-1.6-1.4-1.9-2.7l-54.8,0C0.6,86.5,0,85.8,0,85
	c0-20.9,16.9-37.8,37.8-37.8c4.7,0,9.2,0.9,13.3,2.4c4.2,1.6,8.1,3.9,11.5,6.8c0.7,0.4,1.7,1.2,2.3,1.7C65.3,58,65.8,57.7,66.3,57.5
	L66.3,57.5z M76.3,59.3c-0.6-0.1-1.1-0.6-1.2-1.2L74.8,55c-0.1-0.5-0.5-0.9-1-0.9h-1.2c-0.5,0-0.9,0.4-1,0.9l-0.4,3.1
	c-0.1,0.6-0.5,1.1-1.1,1.2c-1.6,0.4-3.1,1-4.5,1.9c-0.5,0.3-1.2,0.3-1.6-0.1c-0.3-0.3-2.5-1.9-2.7-2c-0.4-0.2-0.8-0.1-1.1,0.2
	l-0.8,0.8c-0.4,0.4-0.4,0.9-0.1,1.3l1.9,2.4c0.4,0.5,0.5,1.2,0.1,1.7c-0.8,1.3-1.6,3-1.9,4.4c-0.1,0.6-0.6,1.1-1.2,1.2L55,71.6
	c-0.5,0.1-0.9,0.5-0.9,1v1.2c0,0.5,0.4,0.9,0.9,1l3.1,0.4c0.6,0.1,1.1,0.5,1.2,1.1c0.4,1.6,1,3.1,1.9,4.5c0.3,0.5,0.3,1.2-0.1,1.6
	l-1.9,2.5c-0.3,0.4-0.3,1,0.1,1.3l0.8,0.8c0.4,0.4,0.9,0.4,1.3,0.1l2.4-1.9c0.5-0.4,1.2-0.5,1.7-0.1c1.3,0.8,3,1.6,4.4,1.9
	c0.6,0.1,1.1,0.6,1.2,1.2l0.4,3.1c0.1,0.5,0.5,0.9,1,0.9h1.2c0.5,0,0.9-0.4,1-0.9l0.4-3.1c0.1-0.6,0.5-1.1,1.1-1.2
	c1.6-0.4,3.1-1,4.5-1.9c0.5-0.3,1.2-0.3,1.6,0.1l2.5,1.9c0.4,0.3,1,0.3,1.3-0.1l0.8-0.8c0.4-0.4,0.4-0.9,0.1-1.3l-1.9-2.4
	c-0.4-0.5-0.5-1.2-0.1-1.7c0.8-1.3,1.6-3,1.9-4.4c0.1-0.6,0.6-1.1,1.2-1.2l3.1-0.4c0.5-0.1,0.9-0.5,0.9-1v-1.2c0-0.5-0.4-0.9-0.9-1
	l-3.1-0.4c-0.6-0.1-1.1-0.5-1.2-1.1c-0.4-1.6-1-3.1-1.9-4.5c-0.3-0.5-0.3-1.2,0.1-1.6l1.9-2.5c0.3-0.4,0.3-1-0.1-1.3l-0.8-0.8
	c-0.4-0.4-0.9-0.4-1.3-0.1L82.5,61c-0.5,0.4-1.2,0.5-1.7,0.1C79.4,60.3,77.9,59.7,76.3,59.3L76.3,59.3z M77.2,53.2
	c0-1.3,0.1-2.3,0.7-3.5c0.5-1,1.1-1.8,2-2.5c5.8-4.8,4.8-13.9-1.9-17.3v8.3c0,1.5-1.3,2.8-2.8,2.8h-4c-1.5,0-2.8-1.3-2.8-2.8v-8.3
	c-6.6,3.5-7.6,12.6-1.9,17.3c1.9,1.6,2.7,3.6,2.7,6c0.7-1.2,2-2,3.4-2c1.4,0,2.5-0.1,3.7,1C76.7,52.5,76.9,52.8,77.2,53.2L77.2,53.2
	z M56.6,83.6c0.2-0.4,1.2-1.7,1.6-2.1c-0.6-1.1-1.1-2.3-1.5-3.6l-2.1-0.3c-1.9-0.3-3.4-1.9-3.4-3.8c0-1.4-0.1-2.5,1-3.7
	c0.6-0.7,1.4-1.2,2.4-1.3l2.1-0.3c0.4-1.2,0.9-2.4,1.5-3.6l-1.3-1.7c-1.2-1.6-1-3.7,0.3-5.1c0.3-0.3,0.9-0.9,1.2-1.2
	c-2.5-1.9-5.3-3.4-8.3-4.5l-2.5,15.3c-0.1,0.9-1.1,1.4-1.9,1.1l-6.5-2.1v16.9L56.6,83.6z M68.6,73.8l2.8,3.1c0.5,0.6,1.4,0.6,2,0.1
	c0.2-0.2,3.9-5.1,4.5-5.8c0.5-0.6,0.4-1.5-0.3-2c-0.6-0.5-1.5-0.4-2,0.3l-3.2,4.2l-1.6-1.8c-0.5-0.6-1.4-0.6-2-0.1
	S68,73.3,68.6,73.8L68.6,73.8z M56.7,30.9c3.5,1.4,5.9-3.3,3.4-5.6c-0.7-0.6-1.4-1.3-2.1-1.8V19c0-9.5-8.1-17-17.7-17h-1.1V1.4
	c0-0.8-0.6-1.4-1.4-1.4s-1.4,0.6-1.4,1.4v0.5h-1.1c-9.6,0-17.7,7.5-17.7,17v4.5c-0.7,0.6-1.4,1.2-2.1,1.8c-2.5,2.3-0.1,7,3.4,5.6
	c1.6,9.1,9.6,15.8,18.9,15.8S55.1,39.9,56.7,30.9L56.7,30.9z M21.5,29.1c0.8,8.3,7.9,14.7,16.3,14.7c8.4,0,15.4-6.4,16.3-14.7
	C44.3,22.7,31.3,22.7,21.5,29.1z M47.4,51.5c-0.4-0.1-0.8-0.2-1.2-0.3l-6.4,12.7l5.3,1.7L47.4,51.5z M43.3,50.6
	c-3.6-0.6-7.4-0.6-11,0l5.5,11L43.3,50.6z M29.3,51.2c-0.4,0.1-0.8,0.2-1.2,0.3l2.3,14.1l5.3-1.7L29.3,51.2z M25.4,52.4
	C12.5,57.3,3.5,69.5,2.9,83.6h33.4V66.7l-6.8,2.2c-0.8,0.1-1.5-0.4-1.6-1.2L25.4,52.4z M73.2,62.4c-5.9,0-10.8,4.8-10.8,10.8
	c0,5.9,4.8,10.8,10.8,10.8c5.9,0,10.8-4.8,10.8-10.8C83.9,67.2,79.1,62.4,73.2,62.4z M78.7,67.6c-3.1-3.1-8.1-3.1-11.2,0
	c-3.1,3.1-3.1,8.1,0,11.2c3.1,3.1,8.1,3.1,11.2,0C81.8,75.7,81.8,70.7,78.7,67.6z M37.8,16.5c-6.2,0-12.2,1.7-17.4,4.9v-2.5
	c0-7.9,6.8-14.2,14.8-14.2h5.2c8,0,14.8,6.2,14.8,14.2v2.5C50,18.2,44,16.5,37.8,16.5L37.8,16.5z M48.8,21.5
	c-10.7-4.2-23.1-1.9-31.4,5.9c-0.3,0.2,0,1.2,0.5,0.8c11.6-8.9,28.2-8.9,39.8,0c0.5,0.4,0.7-0.5,0.5-0.8
	C55.5,24.8,52.3,22.8,48.8,21.5L48.8,21.5z M11.3,71.8c-0.8,0-1.4,0.6-1.4,1.4v5.1c0,0.8,0.6,1.4,1.4,1.4h13.9
	c0.8,0,1.4-0.6,1.4-1.4v-5.1c0-0.8-0.6-1.4-1.4-1.4H11.3z M23.8,74.7h-11v2.2h11V74.7z"/>
</svg>
