<?xml version="1.0" encoding="utf-8"?>
<!-- Generator: Adobe Illustrator 23.0.5, SVG Export Plug-In . SVG Version: 6.00 Build 0)  -->
<svg version="1.1" id="Layer_1" xmlns="http://www.w3.org/2000/svg" xmlns:xlink="http://www.w3.org/1999/xlink" x="0px" y="0px"
	 viewBox="0 0 518.8 518.8" style="enable-background:new 0 0 518.8 518.8;" xml:space="preserve">
<g>
	<path d="M354.9,406.9c-11.1-6.8-22.4-13.5-33.8-20.1l0,0c-20-11.6-40.3-23-60.2-34.2v-11.1c0.9-1.1,1.8-2.3,2.7-3.4
		c10.4-13.5,18.2-29.2,23.2-46c17.5-6.3,30.7-24.5,30.7-43.4c0-9.7-3.6-18.3-10-24.2c-2.9-2.7-6.4-4.7-10.2-5.9
		c6.9-17.1,10.8-34.3,10.8-49.7c0-57.9-49.5-105-110.4-105s-110.4,47.1-110.4,105c0,15.4,3.9,32.6,10.8,49.7
		c-3.9,1.3-7.4,3.4-10.4,6.2c-6.3,5.9-9.8,14.4-9.8,24c0,18.8,13.2,37.1,30.7,43.4c4.9,16.8,12.7,32.5,23.1,46
		c1,1.3,1.9,2.5,2.9,3.7v10.7c-31.5,17.7-64,35.9-94.2,54.5C28.7,414,22,426,22,439.7V504c0,3.9,3.1,7,7,7c3.9,0,7-3.1,7-7v-64.3
		c0-8.9,4.2-16.3,11.7-20.9c7.5-4.6,15.1-9.2,22.9-13.8v99c0,3.9,3.1,7,7,7c3.8,0,7-3.1,7-7V396.8c9.4-5.5,18.9-10.9,28.4-16.3v78.6
		c0,3.9,3.1,7,7,7h155.5c3.9,0,7-3.1,7-7v-78.6c9.5,5.4,19,10.8,28.4,16.3V504c0,3.9,3.1,7,7,7s7-3.1,7-7v-99
		c7.7,4.6,15.4,9.1,22.9,13.8c7.6,4.6,11.7,12,11.7,20.9V504c0,3.9,3.1,7,7,7s7-3.1,7-7v-64.3C373.3,426,366.6,414,354.9,406.9
		L354.9,406.9z M148.5,356.4v-0.5c15.1,12.9,32.3,19.9,49.1,19.9c16.9,0,34.1-7.1,49.3-20.1v0.9c0,27.1-22.1,49.2-49.2,49.2
		c-27.1,0-49.2-22.1-49.2-49.2L148.5,356.4z M106.8,201.6c24.6-16.3,56.7-25.3,90.8-25.3c34.2,0,66.2,8.9,90.8,25.3
		c-6,19.1-16.6,38.9-30,55.5c-18.1-11.4-39-17.4-60.9-17.4c-21.9,0-42.8,6-60.8,17.4C123.4,240.5,112.9,220.7,106.8,201.6
		L106.8,201.6z M303.5,248.6c0,9.3-5.2,18.9-12.6,25.1c1.3-8.1,2-16.4,2-24.6c0-4.5-0.1-10.8-0.5-17.5c2.1,0.6,4,1.7,5.7,3.2
		C301.6,237.9,303.5,242.9,303.5,248.6L303.5,248.6z M197.6,77.8c53.2,0,96.5,40.8,96.5,91c0,5.9-0.7,12.1-2,18.6
		c-26.3-16.2-59.5-25-94.5-25c-35.1,0-68.2,8.8-94.5,25c-1.3-6.5-2-12.7-2-18.6C101.2,118.6,144.4,77.8,197.6,77.8L197.6,77.8z
		 M91.8,248.6c0-5.7,1.9-10.5,5.3-13.7c1.6-1.5,3.4-2.6,5.5-3.2c-0.2,6.6-0.2,12.4-0.2,16.5v0.9c0,8.3,0.7,16.5,2,24.6
		C96.9,267.5,91.8,257.9,91.8,248.6z M116.4,252.9c4.2,6.3,8.8,12.3,13.8,18c2.4,2.7,6.4,3.2,9.3,1.1c16.9-12,37-18.4,58.1-18.4
		c21.2,0,41.3,6.4,58.1,18.4c1.2,0.8,2.6,1.3,4,1.3c2,0,3.9-0.8,5.3-2.4c5-5.7,9.6-11.7,13.8-18c-0.8,28.3-10,55.3-26.3,76.6
		c-15.8,20.6-35.8,32.3-54.9,32.3c-19.1,0-39.1-11.8-54.9-32.3C126.5,308.3,117.2,281.2,116.4,252.9L116.4,252.9z M268.4,452.2
		H126.9v-79.5l8.7-4.9c5.3,29.5,31.1,51.9,62.1,51.9c31,0,56.8-22.4,62.1-51.8c2.9,1.6,5.7,3.2,8.6,4.8L268.4,452.2z M458.6,188.1
		c-3.4-1.7-7.6-0.4-9.4,3.1c-0.5,1-0.8,2.1-0.8,3.2v28.4c0,10.3-8.4,18.7-18.7,18.7c-10.3,0-18.7-8.4-18.7-18.7v-28.4
		c0-3.9-3.1-7-7-7c-1.1,0-2.2,0.3-3.2,0.8c-21.5,10.9-34.9,32.7-34.9,56.8c0,20.1,9.4,38.8,25.3,50.8v180.9
		c0,21.1,17.2,38.3,38.3,38.3c21.1,0,38.4-17.2,38.4-38.3V295.7c15.9-12,25.3-30.8,25.3-50.8C493.5,220.8,480.1,199,458.6,188.1
		L458.6,188.1z M457.3,286.3c-1.9,1.3-3.1,3.5-3.1,5.8v184.5c0,13.4-10.9,24.4-24.4,24.4c-13.4,0-24.4-10.9-24.4-24.4V292.1
		c0-2.3-1.2-4.5-3.1-5.8c-13.9-9.2-22.2-24.7-22.2-41.4c0-14.7,6.3-28.2,17.1-37.5v15.4c0,18,14.6,32.6,32.6,32.6
		s32.6-14.6,32.6-32.6v-15.4c10.8,9.3,17.1,22.9,17.1,37.5C479.5,261.6,471.2,277,457.3,286.3L457.3,286.3z M493.1,109.8l-14.4-11.4
		c0.1-1.9,0.2-3.8,0.2-5.7l15-10.7c2.6-1.8,3.6-5.2,2.5-8.2l-9.7-25.2c-1.1-3-4.1-4.8-7.3-4.4l-18.3,2c-1.2-1.4-2.5-2.8-3.9-4.1
		l3-18.1c0.5-3.1-1.1-6.2-4-7.5l-24.7-11c-2.9-1.3-6.3-0.5-8.3,2l-11.4,14.4c-1.9-0.1-3.8-0.2-5.6-0.1l-10.7-15
		c-1.8-2.6-5.2-3.6-8.2-2.5L362,14c-3,1.1-4.8,4.1-4.4,7.3l2,18.3c-1.4,1.2-2.8,2.5-4.1,3.9l-18.2-3c-3.1-0.5-6.2,1.1-7.5,4
		l-11,24.7c-1.3,2.9-0.5,6.3,2,8.3l14.4,11.5c-0.1,1.9-0.2,3.8-0.1,5.6l-15,10.7c-2.6,1.8-3.6,5.2-2.5,8.2l9.7,25.2
		c1.1,3,4.1,4.8,7.3,4.4l18.3-2.1c1.2,1.4,2.5,2.8,3.9,4.1l-3,18.1c-0.5,3.1,1.1,6.2,4,7.5l24.7,11c2.9,1.3,6.3,0.5,8.3-2l11.5-14.4
		c1.9,0.1,3.7,0.2,5.6,0.1l10.7,15c1.8,2.6,5.2,3.6,8.2,2.5l25.2-9.7c3-1.1,4.8-4.1,4.4-7.3l-2.1-18.3c1.4-1.2,2.8-2.5,4.1-3.9
		l18.1,3c3.1,0.5,6.2-1.1,7.5-4l11-24.7C496.4,115.2,495.6,111.7,493.1,109.8L493.1,109.8z M473.6,132.2l-16.5-2.8
		c-2.4-0.4-4.8,0.5-6.4,2.3c-2.4,2.8-5.1,5.3-7.9,7.5c-1.9,1.5-2.9,3.9-2.6,6.3l1.9,16.6l-15.2,5.8l-9.7-13.6
		c-1.4-2-3.7-3.1-6.1-2.9c-3.7,0.2-7.4,0.1-10.9-0.3c-2.4-0.3-4.8,0.7-6.3,2.6l-10.4,13.1l-14.8-6.6l2.7-16.5
		c0.4-2.4-0.5-4.8-2.3-6.4c-2.8-2.5-5.3-5.1-7.5-7.9c-1.5-1.9-3.9-2.9-6.3-2.6l-16.7,1.9l-5.8-15.1l13.6-9.8c2-1.4,3.1-3.7,2.9-6.2
		c-0.3-3.6-0.2-7.3,0.3-10.9c0.3-2.4-0.7-4.8-2.6-6.3l-13.1-10.4l6.6-14.8l16.6,2.7c2.4,0.4,4.8-0.5,6.4-2.3c2.4-2.7,5-5.3,7.9-7.5
		c1.9-1.5,2.9-3.9,2.6-6.3L372,25.1l15.1-5.8l9.7,13.6c1.4,2,3.7,3.1,6.2,2.9c3.6-0.3,7.2-0.2,11,0.3c2.4,0.3,4.8-0.7,6.3-2.6
		l10.4-13.1l14.8,6.6l-2.8,16.5c-0.4,2.4,0.5,4.8,2.3,6.4c2.6,2.3,5.2,4.9,7.5,7.9c1.5,1.9,3.9,2.9,6.3,2.6l16.7-1.9l5.8,15.1
		l-13.6,9.7c-2,1.4-3.1,3.7-2.9,6.2c0.3,3.6,0.1,7.3-0.3,10.9c-0.3,2.4,0.7,4.8,2.6,6.3l13.1,10.4L473.6,132.2z M422.3,59.3
		c-9.2-4.1-19.4-4.4-28.8-0.8c-9.4,3.6-16.8,10.6-20.9,19.8c-4.1,9.2-4.4,19.4-0.8,28.8c3.6,9.4,10.6,16.8,19.8,20.9
		c4.8,2.1,10,3.3,15.2,3.3c14.4,0,28.2-8.3,34.4-22.3C449.8,90,441.2,67.7,422.3,59.3L422.3,59.3z M428.6,103.3
		c-5.3,11.9-19.3,17.3-31.2,12c-5.8-2.6-10.2-7.2-12.5-13.1c-2.3-5.9-2.1-12.3,0.5-18.1c2.6-5.8,7.2-10.2,13.1-12.5
		c2.7-1,5.6-1.6,8.5-1.6c3.3,0,6.5,0.7,9.6,2.1l0,0C428.5,77.3,433.9,91.3,428.6,103.3L428.6,103.3z M436.8,364.3v57.5
		c0,3.9-3.1,7-7,7s-7-3.1-7-7v-57.5c0-3.9,3.1-7,7-7S436.8,360.4,436.8,364.3z"/>
</g>
</svg>
