<?xml version="1.0" encoding="utf-8"?>
<!-- Generator: Adobe Illustrator 23.0.5, SVG Export Plug-In . SVG Version: 6.00 Build 0)  -->
<svg version="1.1" id="Layer_1" xmlns="http://www.w3.org/2000/svg" xmlns:xlink="http://www.w3.org/1999/xlink" x="0px" y="0px"
	 viewBox="0 0 53.4 58" style="enable-background:new 0 0 53.4 58;" xml:space="preserve">
<g>
	<path d="M49.1,39.7l-5.9-11.5c-0.2-0.3-0.5-0.5-0.9-0.5H19.4c-0.3,0-0.7,0.2-0.8,0.5l-7.4,11.6H2.9C1.3,39.7,0,41,0,42.6V46
		c0,4.2,3.3,7.6,7.5,7.8c0.8,3,4,4.8,7,4c1.9-0.5,3.5-2.1,4-4h16.4c0.8,3,4,4.8,7,4c1.9-0.5,3.5-2.1,4-4h3.2c2.4,0,4.3-1.9,4.3-4.3
		V44C53.4,41.6,51.5,39.7,49.1,39.7z M46.8,39.7H31.1V29.6h10.6L46.8,39.7z M20,29.6h9.1v10.1H13.5L20,29.6z M13,56
		c-2-0.1-3.6-1.8-3.5-3.9c0.1-1.9,1.6-3.4,3.5-3.5c2,0.1,3.6,1.9,3.5,3.9C16.4,54.4,14.9,55.9,13,56L13,56z M40.4,56
		c-2-0.1-3.6-1.8-3.5-3.9c0.1-1.9,1.6-3.4,3.5-3.5c2,0.1,3.6,1.9,3.5,3.9C43.8,54.4,42.3,55.9,40.4,56L40.4,56z M51.4,49.5
		c0,1.3-1,2.3-2.3,2.3h-3c-0.7-6.9-10.6-6.9-11.3,0H18.7C18,45,8.1,45,7.3,51.8C4.3,51.6,2,49.1,2,46v-3.4c0-0.5,0.4-0.9,0.9-0.9
		h45.6c1.3-0.3,2.6,0.6,2.8,1.9c0,0.1,0,0.3,0,0.4L51.4,49.5z"/>
	<path d="M35.9,14.3c-0.1,0.3,0,0.5,0.1,0.8l1.9,3.3h-1.1c0.3-0.5,0.1-1.1-0.4-1.4c-0.3-0.2-0.8-0.2-1.1,0.1l-4,3.3
		c-0.4,0.4-0.5,1-0.1,1.4c0,0,0.1,0.1,0.1,0.1l4,3.3c0.4,0.3,1.1,0.3,1.4-0.2c0.3-0.3,0.3-0.8,0.1-1.1c1.4,0,3.8,0.3,5-0.6l0.1-0.1
		c2.1-1.3,2.9-4,1.7-6.2l-2.7-4.7c-0.3-0.5-0.9-0.7-1.3-0.4c0,0,0,0,0,0l-3.1,1.8C36.1,13.8,35.9,14,35.9,14.3z M34.4,21.8L33.5,21
		l0.9-0.8H39l0.9,1.5L34.4,21.8z M39.5,14.1l2.3,3.9c0.5,0.9,0.4,2-0.2,2.8l-3.4-5.9L39.5,14.1z"/>
	<path d="M18.3,21.9c0.8,1.4,2.3,2.3,3.9,2.3h5.5c0.6,0,1-0.4,1-1v-3.6c0-0.6-0.4-1-1-1H24l0.5-0.9c0.3,0.5,0.9,0.7,1.4,0.4
		c0.4-0.2,0.6-0.6,0.5-1l-0.9-5.1c-0.1-0.5-0.6-0.9-1.2-0.8c-0.1,0-0.1,0-0.2,0.1L19.4,13c-0.5,0.2-0.7,0.8-0.5,1.3
		c0.1,0.4,0.5,0.6,0.9,0.6c-0.7,1.3-2.1,3.2-2,4.7v0.1C17.7,20.4,17.9,21.2,18.3,21.9z M26.8,20.6v1.5h-4.5c-1,0-1.9-0.6-2.4-1.5
		H26.8z M22.6,13.9l1.1-0.4l0.2,1.2l-2.3,4h-1.8C19.9,18.5,22.6,13.9,22.6,13.9z"/>
	<path d="M24.3,8.4l3.1,1.8c0.5,0.3,1.1,0.1,1.4-0.4c0,0,0,0,0,0l1.9-3.3l0.5,0.9c-0.6,0-1,0.4-1,1c0,0.4,0.3,0.8,0.7,1
		c0,0,5,1.9,5.2,1.9c0.5,0,0.9-0.4,1-0.8l0.8-5.1c0.1-0.5-0.3-1.1-0.8-1.2c-0.4-0.1-0.8,0.1-1.1,0.5c-0.8-1.2-1.7-3.4-3-4.1l0,0l0,0
		c-2.2-1.3-5-0.6-6.3,1.5c0,0,0,0.1-0.1,0.1L24,7C23.7,7.5,23.8,8.1,24.3,8.4C24.3,8.4,24.3,8.4,24.3,8.4z M32.7,3
		c0.1,0.1,2.7,4.7,2.7,4.7l-0.2,1.2l-1.2-0.4l-2.3-4L32.7,3z M28.4,3.3C28.9,2.4,29.9,1.9,31,2l-3.4,6l-1.4-0.8L28.4,3.3z"/>
</g>
</svg>
