<svg xmlns="http://www.w3.org/2000/svg" xmlns:xlink="http://www.w3.org/1999/xlink" id="Layer_1" version="1.1" viewBox="0 0 247.9 57.7">
  <!-- Generator: Adobe Illustrator 29.2.1, SVG Export Plug-In . SVG Version: 2.1.0 Build 116)  -->
  <defs fill="#ffffff">
    <style>
      .st0 {
        clip-path: url(#clippath-4);
      }

      .st1 {
        fill: none;
      }

      .st2 {
        clip-path: url(#clippath-1);
      }

      .st3 {
        clip-path: url(#clippath-3);
      }

      .st4, .st5 {
        fill: #ffffff;
      }

      .st6 {
        clip-path: url(#clippath-2);
      }

      .st5 {
        fill-rule: evenodd;
      }

      .st7 {
        fill: #ffffff;
      }

      .st8 {
        clip-path: url(#clippath);
      }
    </style>
    <clipPath id="clippath" fill="#ffffff">
      <rect class="st1" x="5.9" y="2.2" width="236" height="53.3" fill="#ffffff"/>
    </clipPath>
    <clipPath id="clippath-1" fill="#ffffff">
      <rect class="st1" x="5.9" y="15" width="29" height="29" fill="#ffffff"/>
    </clipPath>
    <clipPath id="clippath-2" fill="#ffffff">
      <rect class="st1" x="45.9" y="3.4" width="194.9" height="32.1" fill="#ffffff"/>
    </clipPath>
    <clipPath id="clippath-3" fill="#ffffff">
      <rect class="st1" x="45.9" y="2.2" width="196" height="33.3" fill="#ffffff"/>
    </clipPath>
    <clipPath id="clippath-4" fill="#ffffff">
      <rect class="st1" x="46.6" y="12.9" width="11.4" height="16" fill="#ffffff"/>
    </clipPath>
  </defs>
  <g class="st8">
    <g class="st2">
      <path class="st5" d="M5.9,15h3.2v3.2h-3.2v-3.2ZM12.4,15h3.2v3.2h-3.2v-3.2ZM12.4,21.5h3.2v3.2h-3.2v-3.2ZM18.8,15h3.2v3.2h-3.2v-3.2ZM18.8,27.9h3.2v3.2h-3.2v-3.2ZM25.3,15h9.7v9.7h-3.3v-6.5h-6.4v-3.2ZM28.5,21.5v9.7h-3.2v-3.2h-3.2v-3.2h-3.2v-3.2h9.7ZM31.8,27.9h3.2v3.2h-3.2v-3.2ZM25.3,34.4h3.2v3.2h-3.2v-3.2ZM31.8,34.4h3.2v3.2h-3.2v-3.2ZM31.8,40.8h3.2v3.2h-3.2v-3.2Z" fill="#ffffff"/>
    </g>
    <path class="st4" d="M53.8,39.7c-1.2-.7-2.7-1.3-4.3-1.8l.8-1.8c1.6.5,3,1.1,4.4,1.8l-.9,1.8ZM49,46.4c1.7-.2,3.2-.6,4.4-1.2,1.2-.6,2.3-1.4,3.1-2.4.9-1,1.6-2.3,2.3-4l1.9,1.2c-.7,1.7-1.6,3.1-2.6,4.3-1,1.2-2.2,2.1-3.6,2.8-1.4.7-3.1,1.2-5,1.5l-.5-2.1ZM52.7,43.5c-1.4-.7-2.9-1.3-4.5-1.8l.7-1.9c.8.2,1.5.5,2.3.8.8.3,1.5.7,2.2,1l-.8,1.8Z" fill="#ffffff"/>
    <path class="st4" d="M74.4,48.1h-10.4v-1.7h4.2v-5h-3.7v-1.7h9.4v1.7h-3.9v5h4.4v1.7Z" fill="#ffffff"/>
    <path class="st4" d="M89.9,37.7c-1.2,1.2-2.6,2.3-4.1,3.3v7.8h-2v-6.5c-1.6.9-3.3,1.6-5.1,2.2l-.9-1.9c2-.6,4-1.5,5.9-2.6,1.9-1.1,3.5-2.4,4.9-3.7l1.4,1.5Z" fill="#ffffff"/>
    <path class="st4" d="M104.5,37.9c0,1.8-.5,3.5-1.2,5-.7,1.5-1.7,2.7-3,3.7-1.3,1-2.9,1.7-4.7,2.2l-.9-1.9c2.2-.6,3.9-1.4,5.1-2.6,1.2-1.2,2-2.7,2.4-4.5h-4.7c-.4.7-.9,1.2-1.4,1.8-.5.5-1.2,1.1-2,1.7l-1.3-1.6c1.1-.7,1.9-1.6,2.6-2.5.7-.9,1.3-2,1.8-3.1l2,.5c-.2.5-.4,1-.6,1.4h5.9Z" fill="#ffffff"/>
    <path class="st4" d="M113.8,44.2c-.6,0-1-.1-1.3-.4s-.4-.7-.4-1.1v-.4c0-.5.1-.9.4-1.1s.7-.4,1.3-.4,1,.1,1.3.4.4.7.4,1.1v.4c0,.5-.1.8-.4,1.1s-.7.4-1.3.4Z" fill="#ffffff"/>
    <path class="st4" d="M135,47.5h-12.5v-1.9h5.1v-6.2h-4.5v-1.9h11.4v1.9h-4.8v6.2h5.4v1.9Z" fill="#ffffff"/>
    <path class="st4" d="M142.4,40.9c-1.3-.9-2.8-1.8-4.4-2.5l1.1-1.8c.7.3,1.4.7,2.2,1.1.8.4,1.6.9,2.3,1.4l-1.2,1.8ZM138.3,46.1c1.8-.3,3.2-.8,4.4-1.4,1.2-.6,2.2-1.4,3-2.4.8-1,1.5-2.3,2.2-3.9l1.8,1.1c-.7,1.7-1.5,3.1-2.5,4.2-.9,1.1-2.1,2.1-3.5,2.8-1.3.7-3,1.3-4.9,1.6l-.6-2.1Z" fill="#ffffff"/>
    <path class="st4" d="M164.2,37.9c0,1.9-.5,3.6-1.2,5-.7,1.5-1.8,2.7-3.1,3.7-1.3,1-2.9,1.7-4.8,2.2l-.9-1.9c2.1-.5,3.7-1.3,4.9-2.4-.9-.7-1.9-1.5-3-2.3l1.2-1.4c1.1.7,2.1,1.5,3.1,2.2.8-1,1.3-2.2,1.6-3.5h-4.9c-.4.7-.9,1.3-1.5,1.8-.5.6-1.2,1.1-2,1.7l-1.3-1.6c1.1-.7,1.9-1.6,2.6-2.5.7-.9,1.3-2,1.8-3.1l1.9.5c-.2.6-.4,1.1-.6,1.4h6.1Z" fill="#ffffff"/>
    <path class="st4" d="M179.3,43.5h-11.9v-2.1h11.9v2.1Z" fill="#ffffff"/>
    <path class="st4" d="M193.4,35.4c.6,0,1.1.2,1.4.5.4.3.5.8.5,1.4s-.2,1-.5,1.4c-.4.3-.8.5-1.4.5s-.2,0-.4,0c-.2,2.6-1,4.7-2.3,6.3-1.3,1.6-3.2,2.7-5.7,3.4l-.9-2c1.5-.4,2.7-1,3.6-1.6.9-.7,1.7-1.5,2.2-2.4s.8-2.1.9-3.5h-8.7v-1.9h9.2c0-.7.2-1.1.5-1.5.4-.3.8-.5,1.4-.5ZM194.3,37.1c0-.2,0-.4-.3-.5-.2-.1-.4-.2-.6-.2s-.5,0-.7.2c-.2.1-.2.3-.2.5v.3c0,.2,0,.4.2.6.2.1.4.2.7.2s.5,0,.6-.2c.2-.1.3-.3.3-.6v-.3Z" fill="#ffffff"/>
    <path class="st4" d="M198.8,36.6h8.8v1.9h-8.8v-1.9ZM197.3,40.2h11.4c0,2.4-.7,4.3-2,5.7-1.3,1.4-3.2,2.3-5.6,2.8l-.9-1.9c1.9-.3,3.3-.9,4.3-1.6,1-.8,1.7-1.8,2-3.1h-9.3v-1.9Z" fill="#ffffff"/>
    <path class="st4" d="M223.9,37.7c-1.2,1.2-2.6,2.3-4.1,3.3v7.8h-2v-6.5c-1.6.9-3.3,1.6-5.1,2.2l-.9-1.9c2-.6,4-1.5,5.9-2.6,1.9-1.1,3.5-2.4,4.9-3.7l1.4,1.5Z" fill="#ffffff"/>
    <path class="st4" d="M239,35.4c.5.9.9,1.7,1.2,2.5l-1.1.4c-.4-1-.8-1.8-1.2-2.6l1.1-.4ZM236.2,39.9c-.4,1.2-.9,2.4-1.7,3.5.7.5,1.4,1.1,2.2,1.7.8.7,1.6,1.3,2.3,2l-1.3,1.6c-1.5-1.5-2.9-2.8-4.4-3.8-1.5,1.6-3.4,2.8-5.7,3.8l-1.1-1.9c2.2-.8,4-1.9,5.3-3.1,1.3-1.3,2.2-2.8,2.7-4.5h-6.7v-1.9h8.8c-.2-.4-.3-.6-.4-.7l1.1-.4c.5.9.9,1.7,1.2,2.5l-1.1.4c-.2-.5-.4-1-.6-1.5,0,.8-.2,1.6-.4,2.4Z" fill="#ffffff"/>
    <g class="st6">
      <g class="st3">
        <g class="st0">
          <path class="st4" d="M52.6,27.8c-1.2,0-2.3-.3-3.2-.9-1-.6-1.7-1.4-2.1-2.3l2.4-1.5c.3.6.7,1.1,1.2,1.4.5.3,1.1.5,1.8.5s1.1-.1,1.4-.4c.3-.3.5-.6.5-1.1s-.2-.9-.7-1.2c-.5-.3-1-.6-1.7-.8-.7-.2-1.3-.5-2-.8-.7-.3-1.2-.7-1.7-1.3-.5-.6-.7-1.4-.7-2.3,0-1.3.4-2.3,1.3-3.1.9-.7,1.9-1.1,3.2-1.1s1.7.2,2.4.5c.8.4,1.4.9,1.9,1.5l-2,1.9c-.7-.8-1.5-1.3-2.4-1.3s-.8.1-1.1.4c-.3.2-.4.6-.4,1s.1.6.4.9c.2.3.6.5,1,.6.4.2.8.3,1.3.5.5.2.9.4,1.4.6.5.2.9.5,1.3.8.4.3.7.8,1,1.3.2.5.4,1.2.4,1.9,0,1.3-.5,2.3-1.4,3.1-.9.8-2.1,1.1-3.5,1.1Z" fill="#ffffff"/>
        </g>
        <path class="st4" d="M68.6,13.2h3v14.4h-3v-5.9h-6.1v5.9h-3v-14.4h3v5.9h6.1v-5.9Z" fill="#ffffff"/>
        <path class="st4" d="M83.4,15.9h-5.9v3.2h5v2.7h-5v3.2h5.9v2.6h-8.9v-14.4h8.9v2.6Z" fill="#ffffff"/>
        <path class="st4" d="M85.9,27.7v-14.4h3v14.4h-3Z" fill="#ffffff"/>
        <path class="st4" d="M104.6,27.7h-4l-5.7-7v7h-3v-14.4h3v5.6l5.2-5.6h3.9l-6.3,6.4,6.9,8.1Z" fill="#ffffff"/>
        <path class="st4" d="M114.6,13.2h3v14.4h-3v-5.9h-6.1v5.9h-3v-14.4h3v5.9h6.1v-5.9Z" fill="#ffffff"/>
        <path class="st7" d="M204.3,728.1" fill="#ffffff"/>
        <path class="st4" d="M134.5,15.9h-5.9v3.2h5v2.7h-5v3.2h5.9v2.6h-8.9v-14.4h8.9v2.6Z" fill="#ffffff"/>
        <path class="st4" d="M147.2,13.2h3v14.4h-3.1l-7.3-10v10h-3v-14.4h3.1l7.3,9.9v-9.9Z" fill="#ffffff"/>
        <path class="st4" d="M162.2,13.2v2.7h-3.7v11.8h-3v-11.8h-3.7v-2.7h10.3Z" fill="#ffffff"/>
        <path class="st4" d="M172.8,15.9h-5.9v3.2h5v2.7h-5v3.2h5.9v2.6h-8.9v-14.4h8.9v2.6Z" fill="#ffffff"/>
        <path class="st4" d="M182.4,21.7l4.1,6h-3.5l-3.6-5.7h-1.4v5.7h-3v-14.4h6c1.2,0,2.2.4,3.1,1.3.8.8,1.2,1.9,1.2,3.1s-.3,1.8-.8,2.6c-.6.7-1.3,1.2-2.1,1.5ZM180.7,19.5c.5,0,1-.2,1.3-.5s.5-.8.5-1.3-.2-.9-.5-1.3c-.3-.3-.8-.5-1.3-.5h-2.6v3.6h2.6Z" fill="#ffffff"/>
        <path class="st4" d="M194,13.2c1.2,0,2.2.4,3,1.3.8.8,1.3,1.9,1.3,3s-.4,2.2-1.2,3c-.8.8-1.9,1.2-3.1,1.2h-3v5.9h-3v-14.4h6ZM193.5,19.3c.5,0,1-.2,1.4-.5.3-.3.5-.7.5-1.2s-.2-.9-.5-1.2c-.4-.3-.8-.5-1.4-.5h-2.6v3.4h2.6Z" fill="#ffffff"/>
        <path class="st4" d="M207.2,21.7l4.1,6h-3.5l-3.6-5.7h-1.4v5.7h-3v-14.4h6c1.2,0,2.2.4,3.1,1.3.8.8,1.2,1.9,1.2,3.1s-.3,1.8-.8,2.6c-.6.7-1.3,1.2-2.1,1.5ZM205.4,19.5c.5,0,1-.2,1.3-.5s.5-.8.5-1.3-.2-.9-.5-1.3c-.3-.3-.8-.5-1.3-.5h-2.6v3.6h2.6Z" fill="#ffffff"/>
        <path class="st4" d="M212.8,27.7v-14.4h3v14.4h-3Z" fill="#ffffff"/>
        <path class="st4" d="M223.2,27.8c-1.2,0-2.3-.3-3.2-.9-1-.6-1.7-1.4-2.1-2.3l2.4-1.5c.3.6.7,1.1,1.2,1.4.5.3,1.1.5,1.8.5s1.1-.1,1.4-.4c.3-.3.5-.6.5-1.1s-.2-.9-.7-1.2c-.5-.3-1-.6-1.7-.8-.7-.2-1.3-.5-2-.8-.7-.3-1.2-.7-1.7-1.3-.5-.6-.7-1.4-.7-2.3,0-1.3.4-2.3,1.3-3.1.9-.7,1.9-1.1,3.2-1.1s1.7.2,2.4.5c.8.4,1.4.9,1.9,1.5l-2,1.9c-.7-.8-1.5-1.3-2.4-1.3s-.8.1-1.1.4c-.3.2-.4.6-.4,1s.1.6.4.9c.2.3.6.5,1,.6.4.2.8.3,1.3.5.5.2.9.4,1.4.6.5.2.9.5,1.3.8.4.3.7.8,1,1.3.2.5.4,1.2.4,1.9,0,1.3-.5,2.3-1.4,3.1-.9.8-2.1,1.1-3.5,1.1Z" fill="#ffffff"/>
        <path class="st4" d="M239,15.9h-5.9v3.2h5v2.7h-5v3.2h5.9v2.6h-8.9v-14.4h8.9v2.6Z" fill="#ffffff"/>
      </g>
    </g>
  </g>
</svg>